<svg width="48" height="48" viewBox="0 0 48 48" fill="none" xmlns="http://www.w3.org/2000/svg">
<rect width="48" height="48" rx="12" fill="#FDF5F3"/>
<path d="M23.592 29.692C22.824 29.692 22.1467 29.548 21.56 29.26C20.984 28.972 20.536 28.5613 20.216 28.028C19.896 27.484 19.736 26.8387 19.736 26.092H21.752C21.752 26.4973 21.8267 26.8547 21.976 27.164C22.1253 27.4627 22.3387 27.692 22.616 27.852C22.8933 28.012 23.2187 28.092 23.592 28.092C23.9547 28.092 24.2693 28.012 24.536 27.852C24.8027 27.692 25.0107 27.452 25.16 27.132C25.32 26.8013 25.4 26.396 25.4 25.916C25.4 25.468 25.3253 25.1 25.176 24.812C25.0267 24.5133 24.8187 24.2947 24.552 24.156C24.2853 24.0067 23.9813 23.932 23.64 23.932C23.384 23.932 23.1493 23.9747 22.936 24.06C22.7227 24.1453 22.536 24.2573 22.376 24.396C22.216 24.524 22.0773 24.6733 21.96 24.844L20.104 24.604L20.552 18.524H26.856V20.3H22.248L22.072 23.004C22.2213 22.8973 22.392 22.796 22.584 22.7C22.776 22.604 23 22.524 23.256 22.46C23.5227 22.396 23.8267 22.364 24.168 22.364C24.776 22.364 25.3253 22.492 25.816 22.748C26.3067 23.004 26.696 23.3933 26.984 23.916C27.272 24.4387 27.416 25.1053 27.416 25.916C27.416 26.716 27.2613 27.3987 26.952 27.964C26.6427 28.5293 26.2 28.9613 25.624 29.26C25.0587 29.548 24.3813 29.692 23.592 29.692Z" fill="#003E29"/>
</svg>
