<svg width="48" height="48" viewBox="0 0 48 48" fill="none" xmlns="http://www.w3.org/2000/svg">
<rect width="48" height="48" rx="12" fill="#FDF5F3"/>
<path d="M23.848 29.692C23.2187 29.692 22.6533 29.6013 22.152 29.42C21.6613 29.2387 21.24 28.9453 20.888 28.54C20.536 28.124 20.2693 27.5747 20.088 26.892C19.9067 26.1987 19.816 25.3453 19.816 24.332C19.816 23.1907 19.9013 22.236 20.072 21.468C20.2533 20.7 20.5093 20.0867 20.84 19.628C21.1813 19.1693 21.5973 18.8387 22.088 18.636C22.5787 18.4333 23.1387 18.332 23.768 18.332C24.568 18.332 25.2187 18.4867 25.72 18.796C26.2213 19.0947 26.5893 19.5 26.824 20.012C27.0587 20.524 27.176 21.1053 27.176 21.756H25.192C25.192 21.372 25.1387 21.0467 25.032 20.78C24.936 20.5027 24.776 20.2947 24.552 20.156C24.328 20.0067 24.04 19.932 23.688 19.932C23.1653 19.932 22.7707 20.076 22.504 20.364C22.2373 20.6413 22.056 21.0413 21.96 21.564C21.8747 22.0867 21.8267 22.7107 21.816 23.436C21.88 23.3507 22.0133 23.2333 22.216 23.084C22.4293 22.924 22.7067 22.78 23.048 22.652C23.3893 22.524 23.7787 22.46 24.216 22.46C24.984 22.46 25.6133 22.62 26.104 22.94C26.5947 23.2493 26.9573 23.676 27.192 24.22C27.4267 24.764 27.544 25.3827 27.544 26.076C27.544 26.812 27.384 27.452 27.064 27.996C26.744 28.54 26.3067 28.9613 25.752 29.26C25.1973 29.548 24.5627 29.692 23.848 29.692ZM23.752 28.092C24.1573 28.092 24.488 28.0013 24.744 27.82C25.0107 27.6387 25.208 27.3933 25.336 27.084C25.464 26.7747 25.528 26.4333 25.528 26.06C25.528 25.6653 25.464 25.3187 25.336 25.02C25.208 24.7107 25.0107 24.4707 24.744 24.3C24.488 24.1187 24.1573 24.028 23.752 24.028C23.3467 24.028 23.0107 24.1187 22.744 24.3C22.4773 24.4707 22.28 24.7107 22.152 25.02C22.024 25.3187 21.96 25.6707 21.96 26.076C21.96 26.4493 22.024 26.7907 22.152 27.1C22.28 27.4093 22.4773 27.6547 22.744 27.836C23.0107 28.0067 23.3467 28.092 23.752 28.092Z" fill="#003E29"/>
</svg>
