<svg width="48" height="48" viewBox="0 0 48 48" fill="none" xmlns="http://www.w3.org/2000/svg">
<rect width="48" height="48" rx="12" fill="#FDF5F3"/>
<path d="M21.352 29.5C21.352 28.604 21.4587 27.7293 21.672 26.876C21.896 26.012 22.1947 25.1853 22.568 24.396C22.9413 23.6067 23.3573 22.8653 23.816 22.172C24.2747 21.4787 24.744 20.8547 25.224 20.3H19.736V18.524H27.576V19.804C27.2133 20.2413 26.84 20.7213 26.456 21.244C26.072 21.7667 25.6987 22.3213 25.336 22.908C24.984 23.4947 24.664 24.1027 24.376 24.732C24.0987 25.3613 23.8747 26.012 23.704 26.684C23.544 27.3453 23.464 28.012 23.464 28.684V29.5H21.352Z" fill="#003E29"/>
</svg>
