<?xml version="1.0" encoding="UTF-8"?><svg id="Layer_2" xmlns="http://www.w3.org/2000/svg" viewBox="0 0 136.22 137.58"><defs><style>.cls-1{fill:#00a745;}.cls-2{fill:#00662a;}</style></defs><g id="Layer_1-2"><g><path class="cls-2" d="m24.05,32.22h108.96v78.6c0,3.26-2.65,5.91-5.91,5.91H29.96c-3.26,0-5.91-2.65-5.91-5.91V32.22h0Z"/><polygon class="cls-2" points="132.18 32.9 24.05 32.45 24.05 32.45 44.27 22.6 66.36 7.6 90.63 20.78 132.18 32.9 132.18 32.9"/><g><path class="cls-1" d="m14.64,137.48c2.31-8.31,8.42-12.6,16.27-14.29,7.57-1.63,15.33-2.36,23.33-2.33-2.67.78-5.36,1.52-8.02,2.36-2.56.81-5.09,1.73-7.41,3.47,14.49,4.78,27.65-.54,41.13-4.73-3.53,5.99-8.7,9.77-15.03,11.99-12.72,4.45-25.75,4.16-38.92,2.58-2.48-.3-5.06.22-7.63.65-.87.15-3.17.6-3.73.31Z"/><path class="cls-1" d="m6.24,77.73c1.02,12.03.88,24.31,7.7,34.73h0c-.2-4.76.58-9.7.38-14.61,7.27,12.13,6.94,29.45-1.91,37.02-4.13-12.4-8.58-24.05-11.81-36.04-1.94-7.22.93-15.06,5.63-21.11Z"/></g><path class="cls-1" d="m21.54,33.01c13.07-7.26,26.65-17.11,36.52-27.5,5.76-6.07,8.77-7.99,16.65-1.29,15.08,12.83,36.25,20.71,36.25,20.71l.09-6.61c.02-1.29,1.09-2.31,2.38-2.26l4.87.19c1.24.05,2.22,1.07,2.2,2.31l-.07,6.99c-.01,1.19.66,2.27,1.73,2.79,3.23,1.56,9.18,3.68,14.07,4.48-40.11,1.75-69.86-25.22-69.86-25.22,0,0-16.11,19.49-44.82,25.41Z"/></g></g></svg>