<svg width="19" height="18" viewBox="0 0 19 18" fill="none" xmlns="http://www.w3.org/2000/svg">
<path d="M7.03206 7.6821C7.9685 9.3288 9.3377 10.698 10.9844 11.6344L11.8689 10.3961C12.163 9.9845 12.7181 9.8573 13.1621 10.0998C14.5689 10.8683 16.1236 11.3353 17.7454 11.4637C18.2655 11.5049 18.6665 11.9389 18.6665 12.4606V16.9234C18.6665 17.4361 18.2787 17.8657 17.7687 17.9181C17.2388 17.9726 16.7042 18 16.1665 18C7.60609 18 0.666504 11.0604 0.666504 2.5C0.666504 1.96227 0.693924 1.42771 0.748394 0.89776C0.800804 0.38775 1.23044 0 1.74315 0H6.20592C6.7276 0 7.16163 0.40104 7.2028 0.92109C7.33117 2.54288 7.7982 4.09764 8.5667 5.50444C8.8092 5.9484 8.682 6.50354 8.2704 6.79757L7.03206 7.6821ZM4.51075 7.0252L6.4107 5.66809C5.87197 4.50514 5.50278 3.27183 5.31377 2H2.67557C2.66953 2.16632 2.6665 2.333 2.6665 2.5C2.6665 9.9558 8.7107 16 16.1665 16C16.3335 16 16.5002 15.997 16.6665 15.9909V13.3527C15.3947 13.1637 14.1614 12.7945 12.9984 12.2558L11.6413 14.1558C11.0923 13.9425 10.5621 13.6915 10.0539 13.4061L9.9958 13.373C8.0362 12.2587 6.40784 10.6303 5.2935 8.6707L5.26044 8.6126C4.97499 8.1044 4.72404 7.5742 4.51075 7.0252Z" fill="white"/>
</svg>
