<svg width="130" height="41" viewBox="0 0 130 41" fill="none" xmlns="http://www.w3.org/2000/svg">
<g id="Care Quality Commission svg" clip-path="url(#clip0_604_17125)">
<g id="layer1">
<g id="g4446">
<path id="path4098" d="M55.6752 22.9994C53.1692 22.9994 51.5508 24.8142 51.5508 27.4938C51.5508 30.1903 53.1513 31.9537 55.5516 31.9537C58.0396 31.9537 59.6581 30.1735 59.6581 27.4938C59.6581 24.7628 58.0764 22.9994 55.6752 22.9994ZM55.6394 30.7018C54.1662 30.7018 53.0617 29.3984 53.0617 27.4415C53.0617 25.521 54.0398 24.2345 55.5866 24.2345C57.0626 24.2345 58.1491 25.5556 58.1491 27.5126C58.1491 29.4517 57.2408 30.7018 55.6394 30.7018ZM107.84 20.0046C107.324 20.0046 106.917 20.4114 106.917 20.9228C106.917 21.4333 107.324 21.8391 107.84 21.8391C108.354 21.8391 108.764 21.4333 108.764 20.9228C108.764 20.4114 108.354 20.0046 107.84 20.0046ZM47.3038 30.5793C44.6885 30.5793 43.0521 28.7103 43.0521 25.838C43.0521 22.8937 45.0091 21.149 47.4274 21.149C49.0996 21.149 50.1483 21.8531 50.2908 21.9419L50.984 20.8508C50.8415 20.7077 49.6862 19.7578 47.3397 19.7578C44.0679 19.7578 41.4167 22.0476 41.4167 25.9792C41.4167 29.7668 43.9245 31.9883 47.1076 31.9883C49.5089 31.9883 50.9661 30.8963 51.0906 30.756L50.3983 29.663C50.2729 29.7333 49.01 30.5793 47.3038 30.5793ZM114.349 22.9994C111.842 22.9994 110.224 24.8142 110.224 27.4938C110.224 30.1903 111.824 31.9537 114.225 31.9537C116.714 31.9537 118.331 30.1735 118.331 27.4938C118.331 24.7628 116.751 22.9994 114.349 22.9994ZM114.313 30.7018C112.837 30.7018 111.736 29.3984 111.736 27.4415C111.736 25.521 112.713 24.2345 114.261 24.2345C115.735 24.2345 116.822 25.5556 116.822 27.5126C116.822 29.4517 115.913 30.7018 114.313 30.7018ZM123.952 22.9994C122.493 22.9994 121.409 23.7764 121.265 23.8642V23.2294H119.916V31.7592H121.425V25.0105C121.497 24.9562 122.581 24.2682 123.685 24.2682C124.217 24.2682 124.661 24.4635 124.893 24.6917C125.336 25.133 125.356 25.838 125.356 26.9123V31.7592H126.865V26.8076C126.865 25.4331 126.83 24.5505 126.013 23.7399C125.747 23.4762 125.141 22.9994 123.952 22.9994ZM70.0753 22.9994C68.7784 22.9994 67.7995 23.5454 67.0893 23.9867C66.6969 23.4575 66.0556 22.9994 64.9728 22.9994C63.6213 22.9994 62.448 23.7923 62.3414 23.8642V23.2294H60.989V31.7592H62.5008V24.9741C62.6254 24.9049 63.6552 24.2682 64.7059 24.2682C65.2199 24.2682 65.5953 24.428 65.8254 24.6571C66.2706 25.1153 66.2536 25.8904 66.2536 27.0357V31.7592H67.7476V26.9833C67.7476 26.2952 67.7476 25.3621 67.6032 24.9909C67.7994 24.8684 68.8302 24.2682 69.879 24.2682C70.3949 24.2682 70.7873 24.4102 71.0533 24.7104C71.4984 25.1854 71.4814 26.2428 71.4814 26.772V31.7592H72.9924V26.8076C72.9924 25.4331 72.9565 24.5505 72.1369 23.7399C71.8709 23.4762 71.2655 22.9994 70.0753 22.9994ZM88.5468 31.7592H90.0578V23.2285H88.5468V31.7592ZM89.2938 20.0046C88.7779 20.0046 88.3676 20.4114 88.3676 20.9228C88.3676 21.4333 88.7779 21.8391 89.2938 21.8391C89.8078 21.8391 90.2171 21.4333 90.2171 20.9228C90.2171 20.4114 89.8078 20.0046 89.2938 20.0046ZM83.7264 22.9994C82.4305 22.9994 81.4515 23.5454 80.7394 23.9867C80.3499 23.4575 79.7095 22.9994 78.6258 22.9994C77.2733 22.9994 76.0991 23.7923 75.9925 23.8642V23.2294H74.641V31.7592H76.1529V24.9741C76.2783 24.9049 77.3092 24.2682 78.357 24.2682C78.8739 24.2682 79.2483 24.428 79.4785 24.6571C79.9236 25.1153 79.9057 25.8904 79.9057 27.0357V31.7592H81.3996V26.9833C81.3996 26.2952 81.3996 25.3621 81.2552 24.9909C81.4515 24.8684 82.4832 24.2682 83.532 24.2682C84.046 24.2682 84.4384 24.4102 84.7062 24.7104C85.1505 25.1854 85.1316 26.2428 85.1316 26.772V31.7592H86.6435V26.8076C86.6435 25.4331 86.6077 24.5505 85.7899 23.7399C85.5239 23.4762 84.9195 22.9994 83.7264 22.9994ZM93.5596 25.3266C93.5596 24.6917 94.0934 24.1803 95.1413 24.1803C96.191 24.1803 97.0813 24.6917 97.187 24.7628L97.7547 23.7576C97.666 23.6874 96.7069 22.9994 95.0356 22.9994C93.2757 22.9994 92.0298 23.9699 92.0298 25.4135C92.0298 28.1287 96.2787 27.7407 96.2787 29.4863C96.2787 30.2446 95.5515 30.756 94.6254 30.756C93.3823 30.756 92.5108 30.21 92.3316 30.1034L91.7629 31.1431C91.8704 31.2319 93.0078 31.9883 94.714 31.9883C96.4051 31.9883 97.8632 31.0374 97.8632 29.3807C97.8632 26.6664 93.5596 26.9665 93.5596 25.3266ZM107.094 31.7592H108.605V23.2285H107.094V31.7592ZM100.888 25.3266C100.888 24.6917 101.42 24.1803 102.47 24.1803C103.518 24.1803 104.408 24.6917 104.516 24.7628L105.083 23.7576C104.995 23.6874 104.035 22.9994 102.364 22.9994C100.604 22.9994 99.359 23.9699 99.359 25.4135C99.359 28.1287 103.607 27.7407 103.607 29.4863C103.607 30.2446 102.881 30.756 101.955 30.756C100.711 30.756 99.8372 30.21 99.6599 30.1034L99.0912 31.1431C99.1997 31.2319 100.336 31.9883 102.045 31.9883C103.731 31.9883 105.19 31.0374 105.19 29.3807C105.19 26.6664 100.888 26.9665 100.888 25.3266Z" fill="#596876"/>
<path id="path4102" d="M47.251 17.0008C49.9022 17.0008 51.431 15.6966 51.5725 15.5563L50.536 13.9023C50.3435 14.007 49.0948 14.8598 47.5481 14.8598C45.3184 14.8598 43.8962 13.2759 43.8962 10.8552C43.8962 8.38405 45.5467 6.90209 47.6726 6.90209C49.3759 6.90209 50.3257 7.70338 50.4652 7.79034L51.5376 6.17282C51.4141 6.05037 50.2021 4.83203 47.5679 4.83203C44.0716 4.83203 41.4016 7.14707 41.4016 11.0132C41.4016 14.7382 43.949 17.0008 47.251 17.0008ZM52.2516 14.1622C52.2516 15.7826 53.322 16.9139 55.0433 16.9139C56.4127 16.9139 57.3257 16.2174 57.4842 16.1126V16.7232H59.5403V11.5863C59.5403 10.4718 59.559 9.58459 58.8366 8.87024C57.9935 8.0353 56.7476 7.91373 56.01 7.91373C54.0247 7.91373 52.8476 8.73002 52.726 8.83473L53.5144 10.3335C53.639 10.2632 54.6745 9.70612 55.8167 9.70612C56.4665 9.70612 56.8522 9.86327 57.0447 10.0539C57.2909 10.2988 57.3088 10.542 57.3088 11.0637H57.0626C56.01 11.0637 52.2516 11.1162 52.2516 14.1622ZM57.3087 14.6157C57.2039 14.6682 56.6231 15.1384 55.6573 15.1384C55.0791 15.1384 54.3237 14.8943 54.3237 14.0071C54.3237 12.9272 55.4111 12.6663 56.9409 12.6663H57.3087V14.6157Z" fill="#596876"/>
<path id="path4106" d="M63.028 11.0996C63.2921 10.7172 64.0098 9.86359 65.4509 9.86359C65.5726 9.86359 65.9074 9.89808 65.9781 9.91584L66.5223 8.13841C66.4705 8.12251 66.1536 7.91392 65.5367 7.91392C63.8174 7.91392 62.7469 9.11351 62.6752 9.23598V8.15701H60.6569V16.7233H63.028V11.0996ZM70.4883 7.91417C68.0314 7.91417 66.3441 9.86362 66.3441 12.4928C66.3441 14.9827 67.838 16.9657 70.6467 16.9657C72.5623 16.9657 73.8789 16.0784 73.9298 16.027L73.1584 14.5292C72.7886 14.703 71.9455 15.1388 70.8561 15.1388C69.1358 15.1388 68.6086 13.8335 68.6444 13.2062H74.3354C74.3354 13.0856 74.3712 12.8406 74.3712 12.476C74.3712 9.68878 73.0159 7.91417 70.4883 7.91417ZM68.6265 11.5167C68.8019 10.4545 69.4678 9.65512 70.5411 9.65512C71.9992 9.65512 72.1746 11.0482 72.1746 11.5167H68.6265ZM91.7752 16.9657C93.0031 16.9657 94.0765 16.1831 94.2161 16.0784V16.7236H96.2344V8.15726H93.8652V14.4254C93.7238 14.5293 93.0211 14.9649 92.2656 14.9649C91.7054 14.9649 91.4413 14.7563 91.3366 14.6517C91.0197 14.3375 90.9669 13.7821 90.9669 12.6667V8.15726H88.5958V12.7714C88.5958 13.885 88.56 15.1734 89.5267 16.1317C90.0888 16.688 90.8622 16.9657 91.7752 16.9657ZM102.409 16.113V16.7236H104.463V11.5868C104.463 10.4723 104.482 9.58496 103.763 8.87064C102.919 8.0357 101.673 7.91417 100.935 7.91417C98.9497 7.91417 97.7727 8.73042 97.6501 8.83513L98.4395 10.3339C98.564 10.2637 99.5986 9.70652 100.74 9.70652C101.392 9.70652 101.777 9.86367 101.969 10.0543C102.216 10.2992 102.234 10.5424 102.234 11.0641H101.987C100.935 11.0641 97.1764 11.1166 97.1764 14.1626C97.1764 15.783 98.247 16.9143 99.9682 16.9143C101.338 16.9143 102.251 16.2178 102.409 16.113ZM99.2486 14.0075C99.2486 12.9276 100.337 12.6667 101.865 12.6667H102.234V14.6162C102.129 14.6686 101.548 15.1388 100.582 15.1388C100.003 15.1388 99.2486 14.8947 99.2486 14.0075ZM107.994 4.11719H105.623V16.7236H107.994V4.11719ZM110.415 7.09418C111.168 7.09418 111.767 6.50328 111.767 5.75437C111.767 5.00638 111.168 4.41358 110.415 4.41358C109.66 4.41358 109.061 5.00638 109.061 5.75437C109.061 6.50328 109.66 7.09418 110.415 7.09418ZM111.609 8.15726H109.237V16.7236H111.609V8.15726ZM117.74 14.9985C116.702 14.9985 116.649 14.216 116.649 13.5371V10.1067H119.109V8.15726H116.649V5.77212H114.281V8.15726H112.787V10.1067H114.281V13.4502C114.281 14.6517 114.281 15.4688 115.018 16.2C115.596 16.775 116.474 16.9657 117.247 16.9657C118.528 16.9657 119.355 16.4618 119.423 16.4094L118.827 14.791C118.67 14.8432 118.282 14.9985 117.74 14.9985ZM121.494 18.8638C120.808 18.8638 120.284 18.6207 120.16 18.5692L119.457 20.2391C119.527 20.2746 120.353 20.7786 121.617 20.7786C123.041 20.7786 123.775 20.2569 124.146 19.8913C124.759 19.2826 125.147 18.4991 125.814 16.8096L129.239 8.15722H126.903L124.743 14.1626L122.424 8.15722H119.913L123.531 16.7236C123.39 17.106 123.091 18.011 122.671 18.4289C122.389 18.7066 122.021 18.8638 121.494 18.8638ZM87.5516 10.8369C87.5516 7.34471 85.2956 4.82681 81.8229 4.82681C78.421 4.82681 76.0961 7.25589 76.0961 10.8369C76.0961 14.4824 78.37 16.9788 81.7258 17.0359C81.7258 17.0359 81.8586 17.0394 81.8701 17.0394C83.499 17.0768 84.626 17.6182 85.3447 18.4971C85.5891 18.3381 87.3565 16.8291 87.3565 16.8291C87.3565 16.8291 86.7444 16.1026 85.3277 15.9137C86.7095 14.8497 87.5516 13.0846 87.5516 10.8369ZM81.8758 14.96C80.0253 14.96 78.6163 13.4416 78.6163 10.9957C78.6163 8.56659 79.849 6.85465 81.7362 6.85465C83.7083 6.85465 85.0316 8.5133 85.0316 10.8199C85.0316 12.6899 84.3101 14.96 81.8758 14.96Z" fill="#596876"/>
<path id="path4110" d="M29.2541 33.0816C33.9019 29.8166 36.9389 24.447 36.9389 18.3696C36.9389 8.41766 28.8005 0.350586 18.7625 0.350586C8.72171 0.350586 0.584198 8.41766 0.584198 18.3696C0.584198 28.3225 8.72171 36.3896 18.7625 36.3896H19.2793C24.1139 36.471 27.4367 38.0623 29.5587 40.6494C30.2718 40.1838 35.4233 35.7865 35.4233 35.7865C35.4233 35.7865 33.5784 33.578 29.2541 33.0816ZM18.3607 31.7782C22.9699 30.8479 26.7331 27.5914 28.3892 23.2876C28.3799 23.2823 28.3676 23.285 28.3553 23.2929C26.5567 26.7327 22.9397 29.0842 18.7625 29.0842C12.7905 29.0842 7.95209 24.2868 7.95209 18.3693C7.95209 12.4518 12.7905 7.65531 18.7625 7.65531C22.9397 7.65531 26.5586 10.0086 28.3572 13.4485C28.3684 13.4591 28.3807 13.4617 28.3892 13.4511C26.733 9.14741 22.9689 5.89177 18.3607 4.96051C18.5116 4.95521 18.6606 4.94992 18.8125 4.94992C26.2153 4.94992 32.2146 10.9581 32.2146 18.3688C32.2146 25.7814 26.2153 31.7905 18.8125 31.7905C18.6606 31.7905 18.5116 31.7835 18.3607 31.7782Z" fill="#893277"/>
</g>
</g>
</g>
<defs>
<clipPath id="clip0_604_17125">
<rect width="129.362" height="41" fill="white" transform="translate(0.23053)"/>
</clipPath>
</defs>
</svg>
