<svg width="40" height="40" viewBox="0 0 40 40" fill="none" xmlns="http://www.w3.org/2000/svg">
<rect width="40" height="40" rx="4" fill="#04A44C"/>
<path d="M18.0014 22.6759C18.0011 22.6553 18.001 22.6347 18.001 22.6141C18.001 20.1058 20.0175 17.9959 22.7539 17.3812C22.3904 15.079 19.9602 13.2002 16.901 13.2002C13.5804 13.2002 11.001 15.4137 11.001 17.9795C11.001 18.9489 11.3613 19.8803 12.0408 20.6783C12.0728 20.7159 12.1244 20.772 12.1934 20.8429C12.7854 21.4519 13.1371 22.2459 13.1955 23.0807C13.9086 22.6685 14.7428 22.5125 15.5583 22.6394C15.7242 22.6652 15.8599 22.685 15.9634 22.6985C16.2711 22.7386 16.5842 22.7589 16.901 22.7589C17.2782 22.7589 17.6459 22.7303 18.0014 22.6759ZM18.4581 24.6272C17.9547 24.7136 17.434 24.7589 16.901 24.7589C16.4944 24.7589 16.095 24.7325 15.705 24.6817C15.5831 24.6658 15.4317 24.6438 15.2507 24.6156C14.8769 24.5575 14.4944 24.6324 14.1713 24.827L12.2665 25.9747C12.1205 26.0649 11.9489 26.1059 11.7773 26.0918C11.3381 26.0557 11.0118 25.6746 11.0484 25.2408L11.1986 23.4599C11.2366 23.0089 11.0766 22.5634 10.7593 22.237C10.6618 22.1367 10.5814 22.0493 10.518 21.9749C9.56406 20.8545 9.00098 19.4734 9.00098 17.9795C9.00098 14.2354 12.5379 11.2002 16.901 11.2002C20.9601 11.2002 24.3041 13.8272 24.7504 17.2081C28.1225 17.3616 30.801 19.7232 30.801 22.6141C30.801 23.8071 30.3448 24.9099 29.572 25.8047C29.5206 25.8641 29.4555 25.9339 29.3765 26.014C29.1194 26.2747 28.9898 26.6304 29.0206 26.9906L29.1423 28.4127C29.172 28.7592 28.9076 29.0635 28.5518 29.0924C28.4128 29.1036 28.2738 29.0708 28.1555 28.9988L26.6124 28.0823C26.3506 27.9269 26.0407 27.867 25.7379 27.9135C25.5913 27.936 25.4686 27.9536 25.3699 27.9663C25.0539 28.0069 24.7303 28.0279 24.401 28.0279C21.7074 28.0279 19.4025 26.6203 18.4581 24.6272ZM25.4346 25.9366C26.0019 25.8496 26.5793 25.9112 27.1105 26.1113C27.2492 25.5506 27.5373 25.0307 27.9524 24.6097C28.0027 24.5587 28.0388 24.5201 28.0584 24.4973C28.5467 23.9321 28.801 23.2841 28.801 22.6141C28.801 20.8097 26.8983 19.2002 24.401 19.2002C21.9037 19.2002 20.001 20.8097 20.001 22.6141C20.001 24.4184 21.9037 26.0279 24.401 26.0279C24.6424 26.0279 24.8809 26.0127 25.115 25.9826C25.1957 25.9722 25.3029 25.9568 25.4346 25.9366Z" fill="white"/>
</svg>
