<?xml version="1.0" encoding="UTF-8"?><svg id="Layer_1" xmlns="http://www.w3.org/2000/svg" viewBox="0 0 1346.27 628.86"><defs><style>.cls-1{fill:#00a745;}.cls-2{fill:#fff;}.cls-3{fill:none;stroke:#00662a;stroke-miterlimit:10;stroke-width:5.22px;}</style></defs><g><g><path class="cls-1" d="m150.58,518.91c7.4-26.61,27-40.38,52.14-45.79,24.25-5.22,49.12-7.57,74.76-7.48-8.57,2.5-17.19,4.86-25.7,7.55-8.21,2.6-16.31,5.53-23.73,11.12,46.43,15.33,88.59-1.74,131.79-15.17-11.31,19.21-27.88,31.32-48.15,38.41-40.76,14.26-82.5,13.32-124.71,8.28-7.95-.95-16.21.69-24.45,2.1-2.77.47-10.16,1.92-11.96.98Z"/><path class="cls-1" d="m123.68,327.43c3.28,38.54,2.83,77.89,24.68,111.28h0c-.63-15.26,1.86-31.09,1.21-46.8,23.31,38.88,22.23,94.37-6.11,118.63-13.24-39.72-27.49-77.07-37.83-115.48-6.22-23.12,2.99-48.26,18.04-67.64Z"/></g><g><path class="cls-2" d="m187.22,205.9h-13.4v-5.94h32.92v5.94h-13.4v39.28h-6.12v-39.28Z"/><path class="cls-2" d="m237.38,245.18l-11.75-18.36h-6.24v18.36h-6.12v-45.22h15.36c4.53,0,8.01,1.35,10.46,4.04,2.51,2.63,3.73,5.81,3.73,9.42,0,5.93-3.73,11.38-10.52,12.91l12.6,18.85h-7.53Zm-17.99-39.4v15.3h8.08c6.12,0,9.11-3.37,9.11-7.71s-2.81-7.59-7.89-7.59h-9.3Z"/><path class="cls-2" d="m252.48,245.18v-45.22h28.15v5.81h-22.03v13.52h20.37v5.81h-20.37v14.26h22.03v5.81h-28.15Z"/><path class="cls-2" d="m317.82,245.18l-4.59-11.75h-17.19l-4.59,11.75h-6.67l18.3-45.22h3.3l18.11,45.22h-6.67Zm-13.15-34.57l-6.55,17.07h13.03l-6.48-17.07Z"/><path class="cls-2" d="m325.77,236.62l4.53-3.73c2.45,4.83,6.42,7.22,10.83,7.22,5.14,0,8.32-3,8.32-6.85,0-2.45-1.59-4.53-4.71-6.3-.79-.42-2.38-1.16-4.65-2.2s-3.92-1.9-5.08-2.57c-4.53-2.88-6.79-6.49-6.79-10.77,0-3.49,1.22-6.36,3.73-8.69,2.51-2.38,5.81-3.55,9.91-3.55,5.57,0,10.03,2.21,13.27,6.67l-4.1,3.92c-2.45-3.24-5.51-4.84-9.11-4.84-4.1,0-7.16,2.45-7.16,6.12,0,2.38,1.29,4.28,3.86,5.81.79.49,2.51,1.41,5.26,2.69,2.75,1.29,4.65,2.26,5.69,2.88,4.34,2.63,6.55,6.12,6.55,10.52,0,3.86-1.41,6.98-4.28,9.36-2.82,2.38-6.37,3.61-10.65,3.61-6.55,0-12.48-3.24-15.42-9.3Z"/><path class="cls-2" d="m363.82,199.96h6.12v28.88c0,7.16,3.73,11.14,10.28,11.14s10.22-4.1,10.22-11.14v-28.88h6.18v29.98c0,4.96-1.53,8.87-4.53,11.75-3,2.88-6.98,4.28-11.87,4.28s-8.87-1.41-11.87-4.28c-3-2.88-4.53-6.79-4.53-11.75v-29.98Z"/><path class="cls-2" d="m431.6,245.18l-11.75-18.36h-6.24v18.36h-6.12v-45.22h15.36c4.53,0,8.01,1.35,10.46,4.04,2.51,2.63,3.73,5.81,3.73,9.42,0,5.93-3.73,11.38-10.52,12.91l12.6,18.85h-7.53Zm-17.99-39.4v15.3h8.08c6.12,0,9.11-3.37,9.11-7.71s-2.81-7.59-7.89-7.59h-9.3Z"/><path class="cls-2" d="m446.71,245.18v-45.22h28.15v5.81h-22.03v13.52h20.37v5.81h-20.37v14.26h22.03v5.81h-28.15Z"/></g><g><path class="cls-2" d="m190.32,427.11c-8.39-8.16-12.53-18.62-12.53-31.38s4.25-23.45,12.76-31.72c8.62-8.39,18.96-12.53,31.15-12.53,15.29,0,29.08,7.13,36.55,17.81l-10.69,10.23c-6.9-8.62-15.29-12.87-25.17-12.87-7.93,0-14.71,2.76-20.23,8.28-5.4,5.52-8.16,12.41-8.16,20.81s2.65,14.94,8.05,20.34c5.4,5.4,12.18,8.05,20.23,8.05,10.46,0,18.96-4.25,25.63-12.87l10.92,9.88c-7.93,10.69-21.72,18.04-37.35,18.04-12.3,0-22.76-4.02-31.15-12.07Z"/><path class="cls-2" d="m321.12,437.92l-7.01-19.31h-30.11l-7.01,19.31h-16.66l32.87-84.94h12.07l32.53,84.94h-16.67Zm-21.95-62.53l-10.57,29.08h21.03l-10.46-29.08Z"/><path class="cls-2" d="m393.65,437.92l-18.97-31.84h-10.46v31.84h-15.63v-84.94h31.61c9.2,0,16.21,2.52,21.15,7.7,4.94,5.17,7.36,11.38,7.36,18.85,0,11.03-5.98,20.92-17.81,24.71l21.37,33.68h-18.62Zm-29.42-70.34v24.37h14.25c9.54,0,14.14-5.4,14.14-12.3s-4.6-12.07-12.41-12.07h-15.97Z"/><path class="cls-2" d="m425.26,437.92v-84.94h56.44v14.71h-40.69v20h37.58v14.6h-37.58v20.92h40.69v14.71h-56.44Z"/></g><g><path class="cls-2" d="m231.95,264.11h14.74l-29.28,70.72h-9.95l-29.57-70.72h15.02l19.62,50.15,19.43-50.15Z"/><path class="cls-2" d="m255.47,264.11h13.11v70.72h-13.11v-70.72Z"/><path class="cls-2" d="m331.34,264.11h12.92v70.72h-8.52l-37.99-44.98v44.98h-12.92v-70.72h7.85l38.66,45.36v-45.36Z"/><path class="cls-2" d="m366.83,325.84c-6.99-6.8-10.43-15.5-10.43-26.12s3.54-19.52,10.62-26.42c7.18-6.99,15.79-10.43,25.93-10.43,12.73,0,24.22,5.93,30.43,14.83l-8.9,8.52c-5.74-7.18-12.73-10.72-20.96-10.72-6.6,0-12.25,2.3-16.84,6.89-4.5,4.59-6.8,10.33-6.8,17.32s2.2,12.44,6.7,16.94c4.5,4.5,10.15,6.7,16.84,6.7,8.71,0,15.79-3.54,21.34-10.71l9.09,8.23c-6.6,8.9-18.09,15.02-31.1,15.02-10.24,0-18.95-3.35-25.93-10.05Z"/><path class="cls-2" d="m433.99,334.84v-70.72h46.99v12.25h-33.88v16.65h31.29v12.16h-31.29v17.42h33.88v12.25h-46.99Z"/></g><path class="cls-1" d="m142.53,187.74c41.87-23.28,78.39-54.84,110.02-88.14,18.47-19.44,28.11-25.6,53.34-4.14,48.33,41.12,123.15,66.36,123.15,66.36l.28-21.17c.06-4.13,3.5-7.4,7.62-7.24l15.62.6c3.97.15,7.1,3.44,7.06,7.42l-.24,22.39c-.04,3.81,2.13,7.28,5.56,8.94,10.36,5.01,29.41,11.79,45.08,14.37-128.51,5.6-230.85-80.82-230.85-80.82,0,0-44.61,62.45-136.64,81.43Z"/></g><g><g><path class="cls-2" d="m592.46,351.09v-84.31h15.63v34.11h36.97v-34.11h15.63v84.31h-15.63v-35.14h-36.97v35.14h-15.63Z"/><path class="cls-2" d="m731.66,351.09l-6.96-19.17h-29.89l-6.96,19.17h-16.54l32.63-84.31h11.98l32.29,84.31h-16.54Zm-21.79-62.06l-10.5,28.86h20.88l-10.38-28.86Z"/><path class="cls-2" d="m758.95,351.09v-84.31h9.81l33.77,49.17,33.66-49.17h9.93v84.31h-15.51v-49.97l-25.56,36.96h-5.14l-25.56-36.96v49.97h-15.4Z"/><path class="cls-2" d="m858.22,336.37l9.35-10.73c5.36,8.1,12.66,12.21,21.9,12.21,7.64,0,12.89-4.22,12.89-9.81,0-3.76-2.63-6.96-7.87-9.58-1.14-.57-3.88-1.71-8.33-3.42-4.45-1.82-7.76-3.42-9.93-4.68-8.78-5.14-13.23-12.09-13.23-20.77,0-6.96,2.62-12.66,7.76-17.23,5.14-4.68,11.86-6.96,20.19-6.96,10.95,0,19.96,3.88,27.04,11.63l-8.67,11.18c-4.68-5.36-12.09-8.21-18.14-8.21-6.85,0-11.41,3.54-11.41,8.9,0,3.53,2.28,6.5,6.96,8.9l8.9,4.11c4.68,1.94,7.99,3.54,10.04,4.56,9.24,4.68,13.92,11.64,13.92,20.65,0,7.41-2.85,13.57-8.44,18.25-5.59,4.68-12.89,7.07-21.79,7.07-12.78,0-24.42-5.7-31.15-16.08Z"/><path class="cls-2" d="m963.99,266.78c9.7,0,16.89,2.74,21.79,8.1,4.91,5.36,7.3,11.75,7.3,19.4s-2.51,14.15-7.64,19.28c-5.02,5.14-12.55,7.76-22.7,7.76h-13.69v29.78h-15.51v-84.31h30.46Zm-.8,40.27c9.13,0,14.03-5.82,14.03-13.01s-4.79-12.78-12.89-12.78h-15.29v25.78h14.15Z"/><path class="cls-2" d="m1005.65,351.09v-84.31h15.63v34.11h36.97v-34.11h15.63v84.31h-15.63v-35.14h-36.97v35.14h-15.63Z"/><path class="cls-2" d="m1093.28,266.78h15.63v84.31h-15.63v-84.31Z"/><path class="cls-2" d="m1173.04,351.09l-18.82-31.6h-10.38v31.6h-15.51v-84.31h31.37c9.13,0,16.09,2.51,20.99,7.64,4.91,5.14,7.3,11.3,7.3,18.71,0,10.95-5.93,20.76-17.69,24.53l21.22,33.43h-18.48Zm-29.21-69.82v24.19h14.15c9.47,0,14.03-5.37,14.03-12.21s-4.57-11.98-12.32-11.98h-15.86Z"/><path class="cls-2" d="m1204.43,351.09v-84.31h56.02v14.6h-40.39v19.85h37.31v14.49h-37.31v20.76h40.39v14.6h-56.02Z"/></g><line class="cls-3" x1="535.64" y1="96.97" x2="535.64" y2="506.13"/></g></svg>