<svg width="143" height="41" viewBox="0 0 143 41" fill="none" xmlns="http://www.w3.org/2000/svg">
<g id="Dementia Friends" clip-path="url(#clip0_604_17132)">
<g id="Layer 2">
<g id="Layer 1">
<path id="Vector 1" d="M13.4136 10.6387L12.3224 11.457L8.77618 18.8223L9.86734 21.5502L15.8687 26.4604L19.6877 27.0059L24.8707 22.3685L26.2346 19.0951L22.9611 11.7298L22.1428 11.1842L13.4136 10.6387Z" fill="#FFD200" stroke="#5090CD" stroke-width="0.109115"/>
<path id="Vector 2" d="M9.32176 20.1865C9.53482 20.7192 9.32176 20.7321 9.86734 21.5505" stroke="#5090CD" stroke-width="0.545575"/>
<path id="Vector" d="M25.689 20.8409C26.3765 22.0303 27.0748 23.1215 27.6531 24.2726C28.6407 26.076 29.1126 28.1164 29.0171 30.1703C28.9134 31.567 28.1332 32.7672 27.0639 32.8982C26.2786 33.0036 25.4803 32.9573 24.7125 32.7618C22.9339 32.2762 21.5263 31.125 20.2333 29.8702C19.4586 29.1173 18.7875 28.2335 18.051 27.426C17.8928 27.246 17.74 27.055 17.5054 26.8041L16.8562 27.6606C15.4431 29.4938 13.861 31.1632 11.7823 32.2271C10.8783 32.6855 9.89498 32.9669 8.88532 33.0564C7.21586 33.1982 6.15744 32.0798 6.01559 30.3831C5.80827 27.7479 6.73575 25.4347 7.99057 23.2087C8.37159 22.5341 8.80195 21.8886 9.27813 21.2774C9.37986 21.1742 9.50283 21.0944 9.6385 21.0436C9.77416 20.9927 9.91928 20.972 10.0638 20.9828C11.4768 21.1683 12.8789 21.4465 14.2974 21.6211C14.4948 21.6344 14.6833 21.708 14.8374 21.8319C14.9916 21.9559 15.104 22.1241 15.1594 22.314C15.705 23.547 16.3488 24.7582 16.9707 25.9639C17.1323 26.2118 17.3148 26.4455 17.5163 26.6622C17.7359 26.4757 17.9319 26.2632 18.1001 26.0294C18.7111 24.7636 19.3222 23.4979 19.8678 22.2103C19.9144 22.0537 20.0101 21.9163 20.1407 21.8181C20.2713 21.7199 20.43 21.6661 20.5934 21.6648C22.0082 21.4975 23.4213 21.3156 24.8325 21.1192C25.4926 21.021 25.6127 20.77 25.1707 20.279C24.2105 19.226 23.2067 18.2113 22.1755 17.2238C22.0292 17.1235 21.9199 16.9777 21.8647 16.8091C21.8095 16.6404 21.8114 16.4583 21.87 16.2908C22.1373 14.916 22.3392 13.5193 22.4865 12.1281C22.5574 11.468 22.3228 11.3097 21.7173 11.5825C20.5279 12.1281 19.3549 12.7391 18.2201 13.3938C18.0492 13.5296 17.839 13.6067 17.6209 13.6136C17.4027 13.6204 17.1881 13.5568 17.0089 13.432C15.7759 12.7173 14.4829 12.1117 13.1899 11.468C12.7098 11.2224 12.4697 11.4134 12.5352 11.9099C12.7262 13.3229 12.9117 14.736 13.1845 16.1326C13.2465 16.3273 13.2473 16.5362 13.1868 16.7314C13.1263 16.9265 13.0074 17.0983 12.8462 17.2238C11.8696 18.1513 10.9585 19.0951 10.0419 20.099C9.90442 20.3151 9.69316 20.4741 9.44735 20.5463C9.20155 20.6185 8.93788 20.5992 8.70528 20.4918C6.26655 19.6079 3.96423 18.4895 2.15837 16.5582C1.62029 15.9815 1.18152 15.3197 0.859902 14.5996C0.695834 14.2773 0.601164 13.9243 0.582003 13.5632C0.562842 13.2021 0.619616 12.841 0.748661 12.5033C0.877705 12.1655 1.07615 11.8585 1.33119 11.6022C1.58622 11.3459 1.89218 11.1459 2.2293 11.0151C3.06736 10.6234 3.96236 10.3675 4.88079 10.2568C7.14949 10.0403 9.43851 10.289 11.6077 10.9878C12.568 11.2825 12.568 11.277 12.5734 10.2459C12.5464 7.94408 13.0192 5.66384 13.9592 3.56257C14.3071 2.82014 14.7671 2.13563 15.3231 1.53302C16.7798 -0.043689 18.542 0.0436031 19.9441 1.6967C20.9601 2.93687 21.6352 4.42054 21.9027 6.00129C22.1864 7.49071 22.301 9.00741 22.4483 10.5187C22.5192 11.3207 22.5574 11.3643 23.3322 11.1297C26.0164 10.3113 28.7279 9.86942 31.5158 10.5405C32.0225 10.6599 32.512 10.8432 32.9725 11.0861C33.3209 11.248 33.6312 11.4817 33.883 11.7719C34.1348 12.0621 34.3225 12.4022 34.4338 12.7699C34.545 13.1377 34.5774 13.5248 34.5286 13.9059C34.4799 14.287 34.3512 14.6535 34.1509 14.9815C33.2482 16.6028 31.8798 17.916 30.2228 18.7514C28.9025 19.4934 27.4949 20.028 26.0873 20.6554L25.689 20.8409Z" fill="#5090CD"/>
<path id="Vector_2" d="M38.4937 5.72338C38.4937 4.31579 38.4937 2.90275 38.4937 1.49517C38.4937 0.70954 38.7774 0.404018 39.5849 0.404018C41.0426 0.352851 42.5022 0.41853 43.9495 0.600425C44.9395 0.746453 45.8594 1.19751 46.581 1.89082C47.3027 2.58412 47.7902 3.48518 47.9758 4.46856C48.2246 5.38642 48.2119 6.35557 47.9391 7.26658C47.6662 8.1776 47.1442 8.99422 46.4318 9.62424C45.3222 10.5893 43.892 11.1049 42.4219 11.07C41.5162 11.1028 40.6051 11.07 39.694 11.07C38.7829 11.07 38.5428 10.759 38.5374 9.92431C38.4883 8.53855 38.4937 7.13096 38.4937 5.72338ZM40.1686 5.72338C40.1686 6.81453 40.1686 7.86204 40.1686 8.93136C40.1686 9.30781 40.2832 9.55332 40.7142 9.54786C41.5074 9.57258 42.3014 9.55619 43.0929 9.49876C43.9566 9.40083 44.7551 8.99193 45.3394 8.34841C45.9237 7.70488 46.2538 6.87071 46.2682 6.00162C46.3391 3.9448 45.2588 2.46084 43.3275 2.10076C42.5178 2.01127 41.7034 1.97119 40.8888 1.98073C40.3432 1.948 40.1468 2.1444 40.1632 2.67907C40.1904 3.68293 40.1686 4.70315 40.1686 5.72338Z" fill="#5090CD"/>
<path id="Vector_3" d="M59.8911 4.15738C60.1808 3.78725 60.5497 3.48678 60.9708 3.27812C61.3919 3.06945 61.8545 2.95789 62.3244 2.95166C62.7942 2.95512 63.2558 3.07566 63.6673 3.30238C64.0788 3.52909 64.4273 3.85484 64.6813 4.25013C64.8324 4.16816 64.975 4.0713 65.1068 3.96098C65.9743 2.97894 67.0927 2.86982 68.2875 3.02259C69.4824 3.17535 70.2625 4.34288 70.2953 5.8323C70.328 7.32172 70.2953 8.65292 70.2953 10.0605C70.2953 10.7588 69.9625 11.1517 69.4114 11.108C68.7513 11.0807 68.5985 10.6388 68.5985 10.0769C68.5985 8.82751 68.5985 7.57814 68.5985 6.33423C68.544 4.82844 67.3873 4.0319 66.0943 4.57748C65.769 4.70904 65.4909 4.93557 65.2963 5.22753C65.1017 5.51949 64.9995 5.86333 65.0032 6.2142C64.9323 7.52358 64.9595 8.84388 64.8886 10.1587C64.8818 10.3289 64.8406 10.4959 64.7674 10.6497C64.6943 10.8034 64.5908 10.9408 64.4631 11.0535C63.9175 11.3917 63.3719 10.9771 63.3283 10.2624C63.2955 9.17122 63.3283 8.03642 63.3283 6.92345C63.324 6.58458 63.2893 6.24679 63.2246 5.91414C63.1887 5.50806 62.9995 5.1309 62.6955 4.85932C62.3914 4.58773 61.9954 4.44209 61.5879 4.45199C61.1619 4.41652 60.7383 4.54365 60.4022 4.80783C60.0662 5.07201 59.8427 5.45363 59.7766 5.87595C59.6879 6.50289 59.6514 7.13611 59.6675 7.76909C59.6675 8.56563 59.6675 9.35672 59.6675 10.1533C59.6675 10.6988 59.5038 11.108 58.8818 11.1298C58.2599 11.1517 58.0089 10.8243 58.0034 10.1642C58.0034 8.18918 58.0034 6.20875 58.0034 4.23376C58.0034 3.68819 58.0034 3.14261 58.74 3.05532C59.4765 2.96803 59.6402 3.44813 59.7166 4.02099C59.7275 4.0319 59.782 4.05918 59.8911 4.15738Z" fill="#5090CD"/>
<path id="Vector_4" d="M80.4539 23.5363C80.2684 23.6836 80.1648 23.76 80.0666 23.8528C79.7622 24.1757 79.3968 24.435 78.9914 24.6155C78.586 24.7961 78.1488 24.8943 77.7052 24.9044C77.2616 24.9146 76.8203 24.8365 76.4071 24.6747C75.9939 24.5129 75.617 24.2706 75.2982 23.9619C73.4815 22.4179 73.5196 18.2661 76.0075 17.0003C76.6262 16.6871 77.322 16.5585 78.0118 16.6301C78.7016 16.7017 79.3562 16.9704 79.8974 17.4041L80.443 17.8896C80.502 17.6379 80.5457 17.3828 80.5739 17.1258C80.5739 16.3074 80.5739 15.4891 80.5739 14.6762C80.5739 13.8633 80.8576 13.585 81.3705 13.5414C81.8833 13.4977 82.2761 13.9669 82.2761 14.6653C82.2761 17.6805 82.2761 20.6993 82.2761 23.7218C82.2761 24.2347 82.1452 24.6875 81.5342 24.753C81.4157 24.7766 81.2935 24.7735 81.1764 24.7436C81.0594 24.7138 80.9505 24.6581 80.8578 24.5806C80.7652 24.5031 80.6911 24.4059 80.641 24.2959C80.5909 24.186 80.5661 24.0663 80.5685 23.9455C80.5388 23.8069 80.5006 23.6702 80.4539 23.5363ZM75.7565 20.6993C75.7565 22.3633 76.7331 23.4927 78.168 23.4709C78.5089 23.4548 78.8433 23.3713 79.1518 23.2252C79.4602 23.079 79.7366 22.8732 79.965 22.6194C80.1933 22.3657 80.369 22.0692 80.482 21.7471C80.595 21.425 80.6429 21.0837 80.623 20.743C80.623 19.1881 79.5974 18.0587 78.1789 18.0478C76.6785 18.0478 75.762 19.0462 75.7565 20.6993Z" fill="#5090CD"/>
<path id="Vector_5" d="M38.4937 33.1604C38.4937 31.7528 38.4937 30.3452 38.4937 28.9376C38.4937 28.0865 38.7447 27.8465 39.5849 27.8465C41.0125 27.796 42.4418 27.847 43.8622 27.9993C45.8863 28.3211 46.7701 29.7178 46.5901 31.8674C46.4879 32.6862 46.0941 33.4407 45.4809 33.9928C44.8677 34.5449 44.0761 34.8576 43.2511 34.8735C42.5255 34.9172 41.7999 34.8735 41.0688 34.9062C40.2396 34.9062 40.1686 34.9881 40.1632 35.7955C40.1632 36.2975 40.1632 36.7939 40.1632 37.2959C40.1632 38.0924 39.8468 38.5234 39.2957 38.5125C38.7447 38.5016 38.4774 38.1088 38.4774 37.3286C38.4883 35.9319 38.4937 34.5462 38.4937 33.1604ZM40.1795 31.3764C40.1468 31.8759 40.1468 32.3771 40.1795 32.8767C40.1795 33.0731 40.4523 33.4223 40.616 33.4223C41.4291 33.496 42.2471 33.496 43.0602 33.4223C43.5937 33.3764 44.0873 33.121 44.433 32.712C44.7786 32.303 44.9481 31.7737 44.9042 31.24C44.8115 30.1488 44.004 29.4232 42.771 29.3959C42.1109 29.3959 41.4507 29.3959 40.7961 29.3959C40.3159 29.3959 40.1359 29.5869 40.1523 30.0452C40.1686 30.5034 40.1795 30.9235 40.1795 31.3764Z" fill="#5090CD"/>
<path id="Vector_6" d="M38.4937 19.417C38.4937 18.0094 38.4937 16.6018 38.4937 15.1888C38.4937 14.365 38.772 14.0977 39.5849 14.0977C41.5162 14.0977 43.4476 14.0977 45.3789 14.0977C45.859 14.0977 46.3064 14.1849 46.3336 14.8124C46.3609 15.4398 46.0336 15.6253 45.488 15.6253H41.1234C40.1577 15.6253 40.1577 15.6253 40.1523 16.6237C40.1523 17.1256 40.1523 17.6275 40.1523 18.124C40.1523 18.6205 40.3596 18.8496 40.8779 18.8442C42.1491 18.8442 43.4257 18.8442 44.6969 18.8442C45.1934 18.8442 45.6299 18.9042 45.6462 19.537C45.6626 20.1699 45.2261 20.3172 44.6915 20.3118C43.4421 20.3118 42.1927 20.3118 40.9434 20.3118C40.3596 20.3118 40.125 20.5027 40.1468 21.1083C40.185 22.014 40.1468 22.9251 40.1468 23.8362C40.1468 24.3818 39.9613 24.7746 39.3339 24.7855C38.7065 24.7964 38.4883 24.5018 38.4828 23.8089C38.4883 22.3249 38.4937 20.8737 38.4937 19.417Z" fill="#5090CD"/>
<path id="Vector_7" d="M58.4236 21.381C58.4193 21.7283 58.496 22.0718 58.6475 22.3843C58.799 22.6968 59.0212 22.9698 59.2965 23.1815C59.5717 23.3933 59.8925 23.538 60.2335 23.6043C60.5744 23.6706 60.926 23.6565 61.2606 23.5633C61.7515 23.4062 62.2207 23.1881 62.6573 22.9141C63.0174 22.7122 63.3502 22.6304 63.6229 22.985C63.686 23.0601 63.7317 23.1482 63.7567 23.243C63.7818 23.3378 63.7856 23.4369 63.7678 23.5334C63.7501 23.6298 63.7113 23.7211 63.6542 23.8008C63.5971 23.8805 63.5231 23.9466 63.4374 23.9943C62.8387 24.4915 62.114 24.8132 61.3437 24.9239C60.5733 25.0347 59.7874 24.9301 59.0728 24.6218C58.391 24.3747 57.7969 23.9327 57.3643 23.3507C56.9316 22.7687 56.6796 22.0724 56.6396 21.3483C56.4213 19.357 57.2561 17.6329 58.8219 16.9837C61.5498 15.8598 64.0812 17.3602 64.2776 20.4045C64.3104 20.9773 63.9066 21.3374 63.2683 21.3429C61.9044 21.3429 60.5404 21.3429 59.182 21.3429C58.9364 21.3374 58.6691 21.3647 58.4236 21.381ZM60.4804 20.2899C60.9769 20.2899 61.4788 20.2899 61.9753 20.2899C62.63 20.2899 62.7173 20.1262 62.5209 19.4879C62.4104 19.0195 62.1392 18.6046 61.7544 18.3155C61.3696 18.0264 60.8956 17.8814 60.415 17.9057C59.9344 17.9416 59.4775 18.1289 59.1099 18.4406C58.7424 18.7523 58.483 19.1724 58.369 19.6407C58.2654 20.0662 58.369 20.3117 58.8382 20.3117L60.4804 20.2899Z" fill="#5090CD"/>
<path id="Vector_8" d="M75.4783 7.60554C74.7254 7.60554 73.9779 7.60554 73.225 7.60554C72.6795 7.60554 72.5431 7.80194 72.7231 8.3257C73.2414 9.82603 75.2 10.4043 76.6512 9.45504C77.0877 9.17134 77.5187 8.71851 77.9825 9.36229C78.2662 9.7551 77.9825 10.257 77.3005 10.6444C76.619 11.0673 75.8329 11.2913 75.0309 11.2913C74.2289 11.2913 73.4428 11.0673 72.7613 10.6444C71.2555 9.72783 70.7863 8.27114 70.9609 6.58531C71.1246 4.99223 71.8775 3.70467 73.4378 3.21911C76.1657 2.36801 78.2607 3.76468 78.6099 6.6726C78.6808 7.27274 78.3534 7.60008 77.726 7.61645C76.9786 7.61645 76.2257 7.61645 75.4783 7.61645V7.60554ZM72.674 6.54712C73.9834 6.54712 75.2491 6.54712 76.493 6.54712C76.624 6.54712 76.864 6.23069 76.8531 6.07793C76.8208 5.80726 76.7351 5.5457 76.601 5.30836C76.467 5.07102 76.2872 4.86261 76.0721 4.69519C75.8569 4.52776 75.6108 4.40465 75.3478 4.33296C75.0848 4.26127 74.8102 4.24243 74.5399 4.27753C73.9984 4.34716 73.5038 4.62075 73.1571 5.04249C72.8104 5.46424 72.6376 6.00237 72.674 6.54712Z" fill="#5090CD"/>
<path id="Vector_9" d="M51.713 35.0042H49.4598C48.996 35.0042 48.8705 35.2115 49.0124 35.6643C49.4707 37.1156 51.2602 37.7321 52.7441 36.9301C52.946 36.8264 53.1206 36.6082 53.3224 36.5864C53.6288 36.5799 53.9348 36.6111 54.2335 36.6791C54.1899 36.9901 54.2663 37.4484 54.0862 37.5848C53.6298 37.9884 53.0866 38.2815 52.4986 38.4413C50.3163 38.856 48.6468 38.3377 47.6648 36.4663C47.2121 35.5792 47.0734 34.5648 47.2716 33.5888C47.4698 32.6127 47.9931 31.7327 48.756 31.0924C49.2702 30.6699 49.89 30.3957 50.5486 30.2996C51.2072 30.2034 51.8796 30.2889 52.4932 30.5468C53.0757 30.7619 53.5908 31.1277 53.9857 31.607C54.3806 32.0863 54.6412 32.6618 54.7409 33.2747C54.7737 33.4275 54.7955 33.5857 54.8173 33.7439C54.9701 34.6387 54.6918 34.9878 53.8025 35.0042C53.0987 35.0042 52.395 35.0042 51.6912 35.0042H51.713ZM51.1238 33.9785H52.6896C53.1642 33.9785 53.2679 33.7439 53.1588 33.3184C53.0556 32.8476 52.7994 32.4242 52.4303 32.1143C52.0612 31.8044 51.5998 31.6254 51.1183 31.6053C50.6115 31.6215 50.124 31.8031 49.73 32.1222C49.336 32.4413 49.0571 32.8806 48.936 33.3729C48.8433 33.7766 48.9687 33.9785 49.3997 33.9785H51.1238Z" fill="#5090CD"/>
<path id="Vector_10" d="M53.7152 7.6053C52.9896 7.6053 52.264 7.6053 51.5329 7.6053C50.9219 7.6053 50.8182 7.79626 51.0255 8.37457C51.5057 9.72214 53.2078 10.3114 54.6263 9.62393C54.8202 9.52313 55.003 9.40246 55.1719 9.26385C55.5265 8.99652 55.8812 8.93105 56.1921 9.3075C56.261 9.37941 56.3115 9.46695 56.3392 9.56261C56.3669 9.65827 56.371 9.75922 56.3511 9.85681C56.3313 9.9544 56.2881 10.0457 56.2252 10.123C56.1624 10.2003 56.0818 10.2611 55.9903 10.3004C55.2967 10.71 54.544 11.0099 53.7589 11.1897C52.8094 11.3585 51.8312 11.166 51.0165 10.6501C50.2018 10.1342 49.6095 9.33225 49.3561 8.40184C48.7669 6.04496 49.7325 3.9063 51.7293 3.15341C52.2998 2.93638 52.9144 2.86151 53.5203 2.93526C54.1261 3.00901 54.7049 3.22916 55.2066 3.57669C55.7083 3.92423 56.1178 4.38869 56.3998 4.92994C56.6817 5.4712 56.8277 6.07298 56.825 6.68328C56.825 7.30524 56.5631 7.61076 55.9303 7.59985C55.1828 7.59985 54.4299 7.59985 53.6825 7.59985L53.7152 7.6053ZM55.1774 6.51415C55.208 6.10998 55.1213 5.70556 54.9278 5.34943C54.7342 4.9933 54.442 4.70059 54.0862 4.50644C53.7423 4.30064 53.3437 4.20497 52.9439 4.23228C52.544 4.25958 52.1621 4.40856 51.8494 4.6592C51.5383 4.85804 51.2897 5.14076 51.1324 5.47475C50.9751 5.80875 50.9153 6.18041 50.9601 6.54689L55.1774 6.51415Z" fill="#5090CD"/>
<path id="Vector_11" d="M104.939 37.4869C104.554 37.9013 104.073 38.2146 103.538 38.3991C103.004 38.5837 102.432 38.6339 101.873 38.5453C101.322 38.5275 100.794 38.3194 100.38 37.9564C99.9648 37.5933 99.6887 37.0977 99.5981 36.5539C99.4508 35.0918 100.067 34.1425 101.42 33.7879C102.394 33.556 103.409 33.556 104.383 33.7879C105.081 33.9352 105.196 33.7879 105.054 33.1059C104.874 32.2221 103.99 31.6765 102.812 31.7802C102.295 31.8388 101.783 31.9299 101.279 32.0529C100.869 32.1402 100.471 32.1457 100.302 31.6983C100.133 31.2509 100.384 30.9181 100.848 30.7654C102.175 30.2603 103.634 30.218 104.988 30.6454C106.238 31.0764 106.696 32.1511 106.729 33.3732C106.767 34.7317 106.729 36.1011 106.729 37.4541C106.729 37.967 106.592 38.3707 106.03 38.4471C105.924 38.4711 105.814 38.4715 105.707 38.4484C105.601 38.4252 105.5 38.379 105.413 38.3129C105.327 38.2469 105.255 38.1627 105.205 38.0662C105.154 37.9696 105.125 37.8632 105.119 37.7542C105.108 37.7215 105.054 37.6724 104.939 37.4869ZM103.161 34.5408C102.723 34.6039 102.299 34.7404 101.906 34.9445C101.718 35.074 101.559 35.2414 101.44 35.4359C101.321 35.6304 101.243 35.8477 101.213 36.0738C101.248 36.2932 101.328 36.5031 101.447 36.6907C101.566 36.8783 101.722 37.0397 101.906 37.165C102.806 37.7706 104.345 37.3232 104.907 36.3957C105.469 35.4682 105.212 34.9008 104.197 34.6881C103.925 34.6553 103.635 34.6171 103.161 34.5408Z" fill="#5090CD"/>
<path id="Vector_12" d="M101.873 10.3663C101.049 10.7016 100.201 10.9752 99.3363 11.1847C98.762 11.2946 98.1674 11.2032 97.6527 10.926C97.1379 10.6487 96.7344 10.2025 96.5102 9.6625C96.3597 9.29692 96.301 8.90006 96.3391 8.50655C96.3773 8.11304 96.5111 7.73485 96.7291 7.40499C96.947 7.07513 97.2424 6.80362 97.5894 6.61417C97.9364 6.42472 98.3245 6.32308 98.7198 6.31812C99.5546 6.27365 100.392 6.31387 101.219 6.43815C101.846 6.50907 102.01 6.37814 101.857 5.75072C101.78 5.37546 101.575 5.03892 101.276 4.79967C100.977 4.56042 100.603 4.43362 100.22 4.44134C99.5214 4.45263 98.8246 4.5183 98.136 4.63775C97.6941 4.69776 97.2086 4.81779 97.0449 4.27767C96.8812 3.73755 97.3122 3.45385 97.765 3.312C98.9542 2.9068 100.235 2.85563 101.453 3.1647C102.035 3.30112 102.552 3.63376 102.918 4.1067C103.284 4.57963 103.475 5.16402 103.461 5.76164C103.494 7.23469 103.461 8.7132 103.461 10.1863C103.461 10.6336 103.374 11.0101 102.85 11.0919C102.75 11.1178 102.646 11.1233 102.543 11.108C102.441 11.0928 102.343 11.0571 102.255 11.0031C102.167 10.9492 102.091 10.878 102.031 10.7939C101.971 10.7098 101.928 10.6145 101.906 10.5136C101.899 10.4637 101.888 10.4145 101.873 10.3663ZM99.8273 7.16922C99.4019 7.2676 98.9884 7.41213 98.5943 7.60023C98.4178 7.7044 98.2692 7.84989 98.1613 8.02419C98.0534 8.1985 97.9895 8.3964 97.975 8.60088C97.9605 8.80535 97.9959 9.01029 98.0781 9.19807C98.1603 9.38585 98.2869 9.55084 98.447 9.67887C98.7234 9.86494 99.0364 9.9897 99.365 10.0448C99.6937 10.0998 100.03 10.084 100.352 9.99817C100.674 9.91238 100.974 9.75869 101.232 9.5474C101.489 9.33612 101.699 9.07215 101.846 8.77321C102.195 7.89484 101.999 7.50748 101.088 7.32198C100.733 7.26197 100.367 7.2456 99.8273 7.18013V7.16922Z" fill="#5090CD"/>
<path id="Vector_13" d="M125.486 37.4487C125.094 37.8687 124.607 38.1874 124.065 38.3775C123.524 38.5676 122.944 38.6233 122.376 38.5399C121.79 38.5232 121.231 38.2915 120.806 37.889C120.38 37.4865 120.118 36.9413 120.068 36.3576C120.024 36.0639 120.039 35.7642 120.112 35.4764C120.186 35.1886 120.317 34.9186 120.497 34.6824C120.677 34.4463 120.903 34.2487 121.161 34.1016C121.419 33.9545 121.704 33.8608 122 33.8261C122.961 33.7224 123.93 33.7224 124.891 33.8261C125.606 33.8752 125.775 33.7443 125.557 33.0623C125.479 32.737 125.299 32.4453 125.042 32.2309C124.786 32.0166 124.467 31.891 124.133 31.873C123.391 31.8539 122.649 31.9087 121.918 32.0366C121.443 32.1076 120.963 32.2494 120.783 31.6602C120.603 31.071 121.045 30.8527 121.509 30.7109C122.725 30.3143 124.029 30.2727 125.268 30.5909C125.831 30.7502 126.326 31.0922 126.675 31.5631C127.023 32.0341 127.206 32.6075 127.193 33.1932C127.232 34.6718 127.193 36.1448 127.193 37.6233C127.193 38.098 127.008 38.4417 126.522 38.4853C126.422 38.5091 126.317 38.5114 126.215 38.492C126.113 38.4726 126.017 38.4319 125.932 38.3727C125.847 38.3135 125.776 38.2371 125.722 38.1484C125.669 38.0597 125.635 37.9607 125.622 37.8579C125.586 37.7187 125.54 37.582 125.486 37.4487ZM125.649 35.3919C125.611 35.321 125.54 34.9773 125.36 34.9064C124.888 34.6813 124.369 34.5686 123.846 34.5771C123.323 34.5856 122.808 34.7151 122.343 34.9555C122.178 35.0462 122.035 35.1723 121.924 35.3248C121.814 35.4774 121.738 35.6525 121.703 35.8376C121.669 36.0227 121.675 36.2133 121.722 36.3957C121.77 36.578 121.857 36.7476 121.978 36.8923C122.281 37.1686 122.655 37.354 123.058 37.4274C123.462 37.5007 123.878 37.4589 124.258 37.3069C124.677 37.2007 125.046 36.9509 125.3 36.6011C125.554 36.2512 125.678 35.8234 125.649 35.3919Z" fill="#5090CD"/>
<path id="Vector_14" d="M81.4196 4.28834C81.7147 3.84415 82.1233 3.48698 82.6029 3.25387C83.0826 3.02076 83.6158 2.92019 84.1475 2.96259C84.4791 2.95454 84.809 3.01321 85.1176 3.13511C85.4262 3.257 85.7071 3.43965 85.9437 3.6722C86.1803 3.90475 86.3678 4.18247 86.4951 4.48887C86.6223 4.79527 86.6867 5.12411 86.6844 5.45587C86.7335 7.01621 86.6844 8.58747 86.6844 10.1533C86.6844 10.6988 86.5098 11.1135 85.8878 11.1135C85.2659 11.1135 85.0367 10.7043 85.004 10.186C84.9604 9.50949 85.004 8.82207 85.004 8.1401C85.004 7.45813 85.004 6.86891 85.004 6.23604C85.0251 5.81111 84.8878 5.39345 84.6187 5.0639C84.3497 4.73434 83.9679 4.51632 83.5473 4.45201C83.107 4.36371 82.6495 4.4377 82.2594 4.66032C81.8694 4.88293 81.573 5.23914 81.425 5.66319C81.3096 6.02854 81.2507 6.40938 81.2504 6.79253C81.2504 7.88368 81.2504 9.01848 81.2504 10.1315C81.2504 10.677 81.0922 11.0808 80.4703 11.1135C80.3443 11.1185 80.2187 11.0959 80.1024 11.0474C79.986 10.9989 79.8816 10.9257 79.7964 10.8327C79.7112 10.7397 79.6474 10.6293 79.6092 10.5092C79.5711 10.389 79.5596 10.262 79.5755 10.1369C79.5755 8.091 79.5755 6.05055 79.5755 4.00464C79.5603 3.89036 79.5684 3.7742 79.5992 3.6631C79.6299 3.552 79.6828 3.44826 79.7547 3.3581C79.8265 3.26793 79.9158 3.19319 80.0172 3.13835C80.1186 3.08351 80.23 3.04971 80.3448 3.03897C80.8904 2.9735 81.1904 3.26811 81.2614 3.80823C81.305 3.97112 81.3578 4.13141 81.4196 4.28834Z" fill="#5090CD"/>
<path id="Vector_15" d="M83.8365 36.3248L84.9003 33.5642C85.2059 32.7567 85.495 31.9275 85.8115 31.1418C86.057 30.5199 86.4661 30.2798 86.9462 30.4762C87.5464 30.7217 87.4918 31.2455 87.3172 31.6874C86.2752 34.2516 85.2441 36.8213 84.1038 39.3255C83.9782 39.6649 83.7823 39.974 83.529 40.2324C83.2756 40.4909 82.9705 40.693 82.6337 40.8253C82.2968 40.9577 81.9358 41.0174 81.5743 41.0006C81.2127 40.9837 80.8588 40.8907 80.5357 40.7276C80.1375 40.553 79.8701 40.302 79.9902 39.8383C80.1102 39.3746 80.4975 39.38 80.8795 39.4346C80.9915 39.4524 81.1026 39.4761 81.2123 39.5055C81.4545 39.5736 81.7117 39.568 81.9507 39.4893C82.1898 39.4105 82.3999 39.2623 82.5544 39.0636C82.7095 38.8806 82.8 38.6515 82.8119 38.4118C82.8237 38.1722 82.7562 37.9353 82.6198 37.7378C81.7651 35.8211 80.9104 33.8988 80.0556 31.9711C79.6901 31.1473 79.7665 30.689 80.2411 30.4817C80.7867 30.2362 81.2286 30.5144 81.5723 31.3655L83.3946 35.8392C83.46 35.9975 83.5528 36.1502 83.6291 36.3084L83.8365 36.3248Z" fill="#5090CD"/>
<path id="Vector_16" d="M110.095 31.6438C110.297 31.4583 110.461 31.3219 110.613 31.1691C111.002 30.7638 111.504 30.4839 112.053 30.3653C112.602 30.2467 113.174 30.2948 113.696 30.5035C114.192 30.6523 114.625 30.9608 114.928 31.3811C115.231 31.8014 115.387 32.3099 115.371 32.8277C115.425 34.4153 115.436 36.0084 115.447 37.596C115.461 37.7165 115.449 37.8387 115.41 37.9536C115.371 38.0686 115.306 38.1733 115.222 38.2601C115.137 38.347 115.034 38.4138 114.92 38.4556C114.806 38.4974 114.684 38.5131 114.563 38.5017C114.018 38.5017 113.783 38.1089 113.783 37.5742C113.783 36.303 113.783 35.0318 113.783 33.7552C113.791 33.2723 113.612 32.8051 113.284 32.4508C112.955 32.0964 112.503 31.8822 112.021 31.8527C111.539 31.8232 111.064 31.9807 110.695 32.2923C110.326 32.604 110.092 33.0458 110.04 33.526C109.937 34.8354 109.97 36.1557 109.92 37.4705C109.934 37.7582 109.847 38.0417 109.675 38.2725C109.566 38.3597 109.438 38.4196 109.301 38.4471C109.165 38.4746 109.023 38.469 108.889 38.4307C108.749 38.3509 108.628 38.2418 108.534 38.1109C108.44 37.9801 108.375 37.8305 108.344 37.6724C108.289 36.4667 108.316 35.2609 108.316 34.0607C108.316 33.2205 108.316 32.3803 108.316 31.5401C108.316 30.9945 108.387 30.509 109.058 30.449C109.729 30.389 109.91 30.7599 109.937 31.3219C109.948 31.3819 110.013 31.4528 110.095 31.6438Z" fill="#5090CD"/>
<path id="Vector_17" d="M67.4638 17.8679C67.6171 17.7577 67.7629 17.6374 67.9002 17.5078C68.3113 17.0583 68.8534 16.7494 69.4497 16.6251C70.046 16.5007 70.6663 16.5671 71.2228 16.8149C72.3849 17.235 72.7886 18.2661 72.7995 19.4446C72.7995 20.874 72.7995 22.3034 72.7995 23.7328C72.7995 24.2784 72.6631 24.7421 71.992 24.7585C71.321 24.7749 71.1846 24.3002 71.1846 23.7546C71.1846 22.5271 71.1846 21.2995 71.1846 20.0775C71.1355 18.5608 70.0225 17.7533 68.6477 18.2116C68.2733 18.3288 67.9474 18.5647 67.719 18.8836C67.4906 19.2025 67.3723 19.5871 67.3819 19.9793C67.3274 21.245 67.3819 22.5216 67.3274 23.7983C67.3228 24.1058 67.2019 24.4001 66.9891 24.6221C66.8778 24.7219 66.7392 24.786 66.5911 24.8061C66.443 24.8263 66.2922 24.8016 66.1583 24.7352C66.0244 24.6689 65.9135 24.5639 65.8398 24.4338C65.7662 24.3037 65.7332 24.1546 65.7452 24.0056C65.7452 21.8669 65.7452 19.7337 65.7452 17.6005C65.7452 17.0986 65.958 16.744 66.4817 16.7113C66.5901 16.6963 66.7005 16.7049 66.8052 16.7366C66.9099 16.7683 67.0065 16.8223 67.0884 16.8949C67.1703 16.9674 67.2355 17.0569 67.2796 17.157C67.3237 17.2572 67.3456 17.3657 67.3437 17.4751C67.3736 17.6089 67.4137 17.7402 67.4638 17.8679Z" fill="#5090CD"/>
<path id="Vector_18" d="M57.9216 31.5888C58.0674 31.492 58.2044 31.3824 58.3308 31.2614C58.7159 30.806 59.2368 30.486 59.8172 30.3485C60.3976 30.211 61.0067 30.2633 61.5552 30.4976C62.75 30.9177 63.1919 31.8779 63.2301 33.0564C63.2683 34.5349 63.2301 36.0079 63.2301 37.4864C63.2301 38.032 63.0719 38.4521 62.4554 38.4903C61.9098 38.5285 61.6316 38.163 61.6261 37.4864C61.6261 36.4389 61.6261 35.3969 61.6261 34.3494C61.6259 33.983 61.5894 33.6174 61.517 33.2582C61.4677 32.8465 61.2641 32.4688 60.9471 32.2014C60.6301 31.9341 60.2235 31.797 59.8093 31.8179C59.3737 31.7667 58.9351 31.8839 58.5831 32.1456C58.2311 32.4073 57.9925 32.7936 57.9162 33.2255C57.8168 33.8516 57.7694 34.4848 57.7743 35.1187C57.7743 35.937 57.7743 36.7554 57.7743 37.5737C57.7743 38.1193 57.5343 38.4685 56.9778 38.4685C56.4213 38.4685 56.1867 38.1193 56.1867 37.5683C56.1867 35.5242 56.1867 33.4801 56.1867 31.436C56.1867 30.8904 56.2467 30.4485 56.9014 30.4158C57.5561 30.3831 57.7525 30.7377 57.7962 31.2942C57.8282 31.3962 57.8703 31.4949 57.9216 31.5888Z" fill="#5090CD"/>
<path id="Vector_19" d="M66.8636 31.6708C66.9526 31.461 67.0701 31.2646 67.2128 31.087C67.6234 30.6871 68.1455 30.4209 68.7104 30.3235C69.2752 30.2261 69.8563 30.3021 70.3771 30.5415C70.8687 30.7354 71.2861 31.0801 71.5694 31.5261C71.8527 31.9721 71.9873 32.4965 71.9539 33.0238C71.9866 34.5187 71.9539 36.019 71.9539 37.5194C71.9539 38.0649 71.7629 38.485 71.1573 38.485C70.5517 38.485 70.3553 38.0868 70.3608 37.5248C70.3608 36.4337 70.3608 35.3916 70.3608 34.3223C70.3583 33.9368 70.3144 33.5527 70.2298 33.1766C70.1601 32.7953 69.9573 32.4511 69.6576 32.2053C69.3579 31.9596 68.9807 31.8281 68.5931 31.8345C67.5893 31.8345 66.9127 32.2327 66.6945 33.1329C66.5808 33.6876 66.5241 34.2525 66.5254 34.8188C66.5254 35.7026 66.5254 36.5919 66.5254 37.4757C66.5254 38.1631 66.2253 38.5287 65.707 38.4905C65.096 38.4468 64.9323 38.0486 64.9378 37.4975C64.9378 35.4516 64.9378 33.4112 64.9378 31.3653C64.9378 30.8852 65.036 30.4869 65.5979 30.4378C66.1598 30.3887 66.4872 30.6833 66.5417 31.2562C66.5592 31.341 66.5867 31.4234 66.6236 31.5017L66.8636 31.6708Z" fill="#5090CD"/>
<path id="Vector_20" d="M86.7007 16.5093C87.47 16.7275 88.2338 16.9185 88.9703 17.1803C89.385 17.3222 89.6959 17.655 89.4886 18.1351C89.2813 18.6152 88.8448 18.5225 88.4302 18.397C87.8788 18.1989 87.3135 18.042 86.7389 17.9278C86.38 17.9033 86.0222 17.989 85.7132 18.1733C85.6087 18.2234 85.5192 18.3001 85.4538 18.3958C85.3883 18.4914 85.3492 18.6026 85.3403 18.7182C85.3315 18.8338 85.3532 18.9496 85.4034 19.0541C85.4535 19.1587 85.5303 19.2481 85.6259 19.3135C85.9702 19.5673 86.3486 19.7711 86.7498 19.9191C87.2518 20.1319 87.781 20.2628 88.2829 20.4647C88.769 20.611 89.1827 20.9342 89.4423 21.3705C89.7018 21.8068 89.7884 22.3246 89.685 22.8216C89.6248 23.2973 89.4129 23.7411 89.0808 24.087C88.7487 24.4329 88.3139 24.6626 87.841 24.742C86.563 25.02 85.2272 24.8078 84.0983 24.1473C83.6291 23.8964 83.2691 23.5636 83.5528 23.0234C83.8365 22.4833 84.2893 22.767 84.7257 22.9416C85.4011 23.2015 86.0916 23.4201 86.7935 23.5963C86.8921 23.6234 86.9952 23.6301 87.0965 23.616C87.1978 23.602 87.2952 23.5674 87.3827 23.5145C87.6828 23.2853 88.1138 22.9689 88.141 22.6961C88.1135 22.5126 88.0434 22.3381 87.9364 22.1865C87.8293 22.0349 87.6883 21.9105 87.5245 21.8232C86.7716 21.4576 85.9424 21.2776 85.1677 20.9503C84.8077 20.8361 84.4909 20.6154 84.259 20.3173C84.0272 20.0192 83.8913 19.6578 83.8692 19.2808C83.8092 18.3097 84.0765 17.5022 84.9876 17.0658C85.5444 16.839 86.117 16.653 86.7007 16.5093Z" fill="#5090CD"/>
<path id="Vector_21" d="M76.1548 38.7358C75.2873 38.4358 74.4144 38.1575 73.5578 37.8302C73.0887 37.6447 72.7831 37.2846 73.0668 36.739C73.3505 36.1934 73.7652 36.4608 74.1907 36.6354C74.7908 36.8899 75.409 37.0997 76.0402 37.2628C76.3248 37.3446 76.6295 37.3194 76.8968 37.1918C77.2132 37.0009 77.6006 36.6845 77.6551 36.3735C77.7097 36.0625 77.3496 35.6642 77.0659 35.5224C76.4439 35.2114 75.7401 35.0696 75.0855 34.8131C74.2125 34.4749 73.4487 34.0384 73.3723 32.9309C73.2905 31.3433 74.3707 30.2467 76.1439 30.334C76.9713 30.433 77.7831 30.6346 78.5608 30.9341C78.6577 30.9544 78.7483 30.9977 78.8249 31.0604C78.9016 31.1231 78.962 31.2033 79.001 31.2943C79.0401 31.3853 79.0567 31.4843 79.0494 31.5831C79.0421 31.6818 79.0111 31.7773 78.959 31.8616C78.7463 32.2708 78.4135 32.3144 77.9716 32.1453C77.5218 31.9318 77.0497 31.7689 76.564 31.6597C76.1657 31.5921 75.7566 31.6336 75.3801 31.7797C75.2355 31.8234 75.1075 31.9098 75.013 32.0276C74.9185 32.1454 74.8619 32.2891 74.8507 32.4398C74.8394 32.5904 74.8741 32.7409 74.9501 32.8714C75.0261 33.0019 75.1399 33.1064 75.2764 33.171C75.7144 33.4063 76.1727 33.6017 76.6458 33.7547C77.0004 33.8966 77.3769 34.0002 77.7369 34.153C78.8281 34.6222 79.2864 35.3314 79.1991 36.4226C79.166 36.9145 78.9674 37.3807 78.6355 37.7453C78.3036 38.1098 77.8581 38.3513 77.3714 38.4303C76.9941 38.4988 76.6135 38.548 76.2312 38.5776L76.1548 38.7358Z" fill="#5090CD"/>
<path id="Vector_22" d="M95.4027 36.4938C95.5936 36.0738 95.7082 35.8555 95.801 35.6318C96.3738 34.1751 96.9358 32.7185 97.5141 31.2672C97.8141 30.5143 98.2506 30.2525 98.7689 30.4871C99.2872 30.7217 99.3145 31.1527 99.0144 31.8455C98.1597 33.8278 97.3013 35.8046 96.4393 37.7759C96.3732 38.0026 96.2353 38.2017 96.0465 38.3433C95.8576 38.485 95.6279 38.5616 95.3918 38.5616C95.1557 38.5616 94.926 38.485 94.7371 38.3433C94.5482 38.2017 94.4104 38.0026 94.3443 37.7759C93.4459 35.7137 92.5512 33.6514 91.66 31.5891C91.5986 31.492 91.5598 31.3823 91.5467 31.2681C91.5335 31.1539 91.5463 31.0382 91.584 30.9297C91.6218 30.8211 91.6835 30.7225 91.7647 30.6411C91.8459 30.5598 91.9444 30.4978 92.0529 30.4598C92.1689 30.4103 92.2943 30.3866 92.4203 30.3906C92.5464 30.3945 92.6701 30.4258 92.7828 30.4824C92.8955 30.539 92.9945 30.6196 93.0729 30.7183C93.1513 30.8171 93.2072 30.9318 93.2368 31.0545L95.0644 35.7519C95.1354 35.9428 95.2281 36.1174 95.4027 36.4938Z" fill="#5090CD"/>
<path id="Vector_23" d="M88.6375 7.24018C88.6375 6.55822 88.6375 5.87625 88.6375 5.19428C88.6532 5.10752 88.6514 5.01853 88.6324 4.93245C88.6134 4.84637 88.5774 4.76494 88.5267 4.69286C88.4759 4.62079 88.4114 4.55951 88.3367 4.5126C88.2621 4.46568 88.1789 4.43405 88.0919 4.41956C87.9639 4.37179 87.8506 4.2912 87.7635 4.18588C87.6763 4.08055 87.6184 3.95418 87.5955 3.81943C87.6165 3.67957 87.6711 3.54691 87.7548 3.43287C87.8384 3.31882 87.9485 3.22681 88.0756 3.16474C88.2521 3.13286 88.4087 3.03219 88.511 2.88487C88.6133 2.73755 88.6529 2.55563 88.6212 2.37911C88.6048 2.08472 88.6048 1.78966 88.6212 1.49527C88.617 1.39767 88.6343 1.30035 88.672 1.21021C88.7097 1.12007 88.7667 1.03934 88.8391 0.973724C88.9115 0.908114 88.9974 0.85924 89.0908 0.830573C89.1842 0.801905 89.2828 0.794147 89.3795 0.807849C89.4767 0.798095 89.5749 0.807785 89.6684 0.836354C89.7618 0.864923 89.8486 0.9118 89.9238 0.974254C89.9989 1.03671 90.0609 1.11349 90.1061 1.20013C90.1513 1.28677 90.1788 1.38154 90.187 1.47891C90.2633 1.98084 90.1488 2.64644 90.4325 2.9465C90.7162 3.24657 91.3872 3.02289 91.851 3.15928C92.0029 3.20939 92.1403 3.29565 92.2515 3.41064C92.3627 3.52563 92.4443 3.66592 92.4893 3.81943C92.5166 3.99401 92.1456 4.23952 91.9437 4.43593C91.8891 4.48503 91.7637 4.46866 91.6764 4.4632C90.0396 4.43047 90.2688 4.5014 90.2524 6.00173C90.2524 6.84191 90.2524 7.6821 90.2524 8.52229C90.2524 9.36247 90.607 9.69527 91.4745 9.7171C91.6109 9.7171 91.78 9.66799 91.8728 9.7171C92.1019 9.86986 92.4184 10.0499 92.4675 10.2627C92.4628 10.3984 92.4251 10.531 92.3576 10.6489C92.2901 10.7668 92.1948 10.8665 92.0801 10.9392C91.7384 11.1589 91.3431 11.2811 90.937 11.2927C90.5309 11.3043 90.1293 11.2048 89.7756 11.0049C89.4219 10.805 89.1295 10.5124 88.9299 10.1585C88.7303 9.80467 88.6311 9.40303 88.643 8.99694C88.643 8.40226 88.643 7.81304 88.643 7.22382L88.6375 7.24018Z" fill="#5090CD"/>
<path id="Vector_24" d="M142.442 35.8991C142.442 36.6193 142.442 37.3449 142.442 38.0814C142.442 38.5015 142.279 38.627 141.897 38.627C140.442 38.627 138.987 38.627 137.532 38.627C137.117 38.627 136.986 38.436 136.986 38.0432C136.986 35.7191 139.714 33.0949 142.033 33.204C142.175 33.204 142.404 33.4931 142.415 33.6568C142.491 34.3988 142.442 35.1517 142.442 35.8991Z" fill="#F55219"/>
<path id="Vector_25" d="M134.252 33.1937C134.972 33.1937 135.697 33.1937 136.434 33.1937C136.854 33.1937 136.98 33.3573 136.98 33.7392C136.98 35.1941 136.98 36.649 136.98 38.1038C136.98 38.5185 136.789 38.6494 136.396 38.6494C134.072 38.6494 131.447 35.9215 131.556 33.6028C131.556 33.461 131.846 33.2318 132.009 33.2209C132.751 33.1446 133.504 33.1937 134.252 33.1937Z" fill="#2ACFED"/>
<path id="Vector_26" d="M142.197 30.1597C142.2 30.485 142.137 30.8076 142.013 31.1083C141.889 31.409 141.706 31.6817 141.474 31.9102C141.243 32.1387 140.968 32.3184 140.665 32.4385C140.363 32.5586 140.04 32.6167 139.714 32.6094C139.06 32.6138 138.43 32.3594 137.962 31.9016C137.494 31.4438 137.226 30.8197 137.216 30.1652C137.221 29.5 137.49 28.8642 137.964 28.397C138.437 27.9297 139.076 27.669 139.742 27.6719C140.067 27.6711 140.389 27.7352 140.69 27.8604C140.99 27.9855 141.262 28.1693 141.491 28.4009C141.72 28.6325 141.9 28.9073 142.021 29.2093C142.142 29.5113 142.202 29.8344 142.197 30.1597Z" fill="#7D0075"/>
<path id="Vector_27" d="M88.6867 32.8982V28.3699C88.6867 27.8244 88.8067 27.3606 89.4723 27.3224C90.1379 27.2842 90.3398 27.7698 90.3398 28.2935C90.3616 31.3815 90.3616 34.4731 90.3398 37.5683C90.3398 38.2067 89.9415 38.5886 89.4341 38.534C88.8394 38.4631 88.6758 38.0484 88.6812 37.5083C88.6921 35.9371 88.6867 34.4204 88.6867 32.8982Z" fill="#5090CD"/>
<path id="Vector_28" d="M136.654 30.1649C136.659 30.4823 136.602 30.7977 136.484 31.0924C136.366 31.3871 136.19 31.6553 135.967 31.881C135.744 32.1068 135.477 32.2856 135.184 32.4069C134.891 32.5281 134.576 32.5895 134.259 32.5872C133.934 32.5923 133.612 32.5326 133.31 32.4117C133.009 32.2909 132.735 32.1111 132.504 31.8831C132.272 31.655 132.089 31.3832 131.964 31.0835C131.839 30.7838 131.775 30.4623 131.776 30.1376C131.789 29.4942 132.049 28.8806 132.504 28.4251C132.958 27.9695 133.572 27.7074 134.215 27.6934C134.539 27.6912 134.859 27.7538 135.158 27.8776C135.457 28.0014 135.729 28.1839 135.956 28.4143C136.183 28.6447 136.362 28.9183 136.482 29.219C136.602 29.5196 136.66 29.8413 136.654 30.1649Z" fill="#F55219"/>
<path id="Vector_29" d="M19.9551 18.1898C19.9558 18.5065 19.8941 18.8202 19.7736 19.1131C19.6531 19.4059 19.4761 19.6722 19.2526 19.8966C19.0292 20.121 18.7638 20.2992 18.4715 20.4211C18.1792 20.5429 17.8658 20.606 17.5491 20.6067C16.9079 20.5917 16.2967 20.3318 15.8412 19.8803C15.3856 19.4288 15.1202 18.82 15.0995 18.1789C15.1124 17.5263 15.3818 16.905 15.8495 16.4495C16.3172 15.9941 16.9454 15.7412 17.5982 15.7457C17.9154 15.7447 18.2295 15.8079 18.5217 15.9315C18.8138 16.0551 19.078 16.2365 19.2981 16.4649C19.5183 16.6932 19.69 16.9638 19.8029 17.2602C19.9158 17.5566 19.9676 17.8729 19.9551 18.1898Z" fill="#3E3C23"/>
<path id="Vector_30" d="M49.4161 18.3043C49.7469 17.8772 50.1119 17.4776 50.5072 17.1095C50.7951 16.8652 51.1558 16.7232 51.5329 16.7057C51.6934 16.7264 51.846 16.7872 51.9767 16.8825C52.1074 16.9779 52.2118 17.1048 52.2804 17.2513C52.3185 17.5405 52.073 18.097 51.8494 18.157C49.798 18.7025 49.3452 20.1865 49.3506 22.0087C49.3506 22.6471 49.3506 23.2854 49.3506 23.9182C49.3641 24.0266 49.3531 24.1365 49.3186 24.2401C49.284 24.3436 49.2266 24.4381 49.1508 24.5166C49.0749 24.5951 48.9824 24.6556 48.8801 24.6937C48.7778 24.7317 48.6683 24.7464 48.5595 24.7366C48.014 24.7366 47.7684 24.4311 47.7684 23.9237C47.7684 21.7887 47.7684 19.6537 47.7684 17.5186C47.7684 17.0167 48.014 16.673 48.5377 16.6675C49.0615 16.6621 49.3561 16.984 49.3615 17.5296C49.3342 17.7423 49.3724 17.9333 49.4161 18.3043Z" fill="#5090CD"/>
<path id="Vector_31" d="M95.2663 7.09258C95.2663 7.99823 95.2663 8.90389 95.2663 9.82045C95.2618 10.0683 95.2325 10.315 95.179 10.557C95.1635 10.6533 95.1284 10.7454 95.076 10.8276C95.0236 10.9098 94.9549 10.9805 94.8741 11.0351C94.7934 11.0898 94.7023 11.1274 94.6065 11.1456C94.5107 11.1637 94.4121 11.1621 94.317 11.1407C94.2169 11.1436 94.1174 11.125 94.025 11.0864C93.9327 11.0477 93.8497 10.9897 93.7815 10.9164C93.7134 10.8431 93.6616 10.7561 93.6298 10.6612C93.5979 10.5662 93.5867 10.4656 93.5968 10.366C93.5968 8.18373 93.5695 6.00142 93.6241 3.81912C93.6683 3.6483 93.7514 3.49 93.8668 3.35657C93.9823 3.22314 94.127 3.11817 94.2897 3.04986C94.389 3.01661 94.4947 3.00706 94.5984 3.02198C94.7021 3.03691 94.8008 3.07589 94.8867 3.1358C94.9726 3.19572 95.0433 3.27491 95.0931 3.36704C95.1429 3.45917 95.1704 3.56168 95.1735 3.66636C95.241 4.27315 95.2701 4.88358 95.2608 5.49404C95.2772 6.00142 95.2663 6.547 95.2663 7.09258Z" fill="#5090CD"/>
<path id="Vector_32" d="M53.5134 20.732V17.7314C53.5134 17.1858 53.6716 16.7057 54.3208 16.7002C54.9701 16.6948 55.1174 17.1858 55.1174 17.7314V23.7818C55.1174 24.3001 55.0301 24.7529 54.359 24.7584C53.8134 24.7584 53.5243 24.4801 53.5134 23.7818C53.4752 22.7561 53.5134 21.7359 53.5134 20.732Z" fill="#5090CD"/>
<path id="Vector_33" d="M117.177 34.4098V31.3491C117.177 30.8035 117.373 30.4107 117.995 30.4216C118.617 30.4325 118.77 30.809 118.77 31.3273C118.77 33.4114 118.77 35.4955 118.77 37.5796C118.77 38.1633 118.486 38.507 117.913 38.4852C117.34 38.4634 117.171 38.0433 117.171 37.5359L117.177 34.4098Z" fill="#5090CD"/>
<path id="Vector_34" d="M117.973 29.0959C117.853 29.1096 117.732 29.097 117.618 29.059C117.504 29.021 117.399 28.9585 117.311 28.876C117.223 28.7934 117.155 28.6927 117.11 28.5809C117.065 28.469 117.045 28.3488 117.051 28.2285C117.054 27.9882 117.151 27.7587 117.322 27.5893C117.492 27.4199 117.722 27.3242 117.962 27.3228C118.217 27.3204 118.463 27.4138 118.652 27.5847C118.841 27.7555 118.959 27.9911 118.982 28.2448C118.953 28.4878 118.832 28.7105 118.645 28.8683C118.458 29.0261 118.218 29.1074 117.973 29.0959Z" fill="#5090CD"/>
<path id="Vector_35" d="M94.3879 1.69146C94.2692 1.70545 94.1488 1.69392 94.0349 1.65766C93.9209 1.6214 93.816 1.56123 93.7272 1.48119C93.6384 1.40114 93.5677 1.30305 93.5198 1.19348C93.4719 1.08391 93.448 0.965382 93.4496 0.845817C93.4496 0.300242 93.7714 0.00563096 94.3716 0.000175201C94.4907 -0.0173859 94.6121 -0.0104269 94.7284 0.0206253C94.8448 0.0516775 94.9535 0.106168 95.048 0.180754C95.1425 0.25534 95.2208 0.34845 95.2781 0.45437C95.3353 0.56029 95.3703 0.676787 95.3809 0.796715C95.4409 1.26591 94.9444 1.69146 94.3879 1.69146Z" fill="#5090CD"/>
<path id="Vector_36" d="M54.2936 15.3364C54.1822 15.3385 54.0714 15.3187 53.9677 15.2781C53.8639 15.2374 53.7692 15.1767 53.6889 15.0995C53.6086 15.0222 53.5443 14.9299 53.4997 14.8278C53.455 14.7257 53.431 14.6158 53.4288 14.5044C53.4267 14.393 53.4465 14.2822 53.4871 14.1785C53.5278 14.0747 53.5885 13.98 53.6657 13.8997C53.743 13.8194 53.8353 13.7551 53.9374 13.7105C54.0395 13.6659 54.1494 13.6418 54.2608 13.6396C54.8446 13.6396 55.3247 14.0216 55.2756 14.5017C55.2738 14.6237 55.246 14.7439 55.1939 14.8543C55.1419 14.9647 55.0669 15.0627 54.9739 15.1417C54.8809 15.2208 54.7721 15.279 54.6548 15.3126C54.5374 15.3462 54.4143 15.3543 54.2936 15.3364Z" fill="#5090CD"/>
</g>
</g>
</g>
<defs>
<clipPath id="clip0_604_17132">
<rect width="141.877" height="41" fill="white" transform="translate(0.59259)"/>
</clipPath>
</defs>
</svg>
