<svg width="32" height="32" viewBox="0 0 32 32" fill="none" xmlns="http://www.w3.org/2000/svg">
<g id="Frame">
<path id="Vector" d="M17.3347 26.5841C22.5964 25.928 26.668 21.4394 26.668 16C26.668 10.1089 21.8924 5.33329 16.0013 5.33329C10.1103 5.33329 5.33464 10.1089 5.33464 16C5.33464 21.4394 9.40622 25.928 14.668 26.5841V18.6666H12.0013V16H14.668V13.7944C14.668 12.0114 14.8536 11.3648 15.2023 10.7129C15.5508 10.0611 16.0624 9.54951 16.7143 9.20089C17.2245 8.92801 17.8575 8.76332 18.9636 8.69268C19.4025 8.66464 19.9708 8.7004 20.668 8.79996V11.3333H20.0013C18.7783 11.3333 18.2736 11.3911 17.9719 11.5524C17.7848 11.6525 17.6539 11.7834 17.5537 11.9705C17.3924 12.2722 17.3347 12.5713 17.3347 13.7944V16H20.668L20.0013 18.6666H17.3347V26.5841ZM16.0013 29.3333C8.6375 29.3333 2.66797 23.3637 2.66797 16C2.66797 8.63616 8.6375 2.66663 16.0013 2.66663C23.3651 2.66663 29.3347 8.63616 29.3347 16C29.3347 23.3637 23.3651 29.3333 16.0013 29.3333Z" fill="#04A44C"/>
</g>
</svg>
