<svg width="63" height="44" viewBox="0 0 63 44" fill="none" xmlns="http://www.w3.org/2000/svg">
<g id="logo.svg" clip-path="url(#clip0_591_15025)">
<path id="Vector" d="M8.45755 14.1825V28.2053H5.4742V14.1825H0V11.2651H13.9083V14.1825H8.45755Z" fill="#EBEBEB"/>
<path id="Vector_2" d="M30.1243 28.2053H27.1878V26.6644C25.743 27.7825 23.9277 28.4119 21.8309 28.4119C16.915 28.4119 13.303 24.7947 13.303 19.754C13.303 14.7133 16.915 11.0725 21.8309 11.0725C25.9307 11.0725 29.1017 13.567 30.0773 17.2783H26.9298C26.0667 15.2958 24.2045 14.0368 21.8262 14.0368C18.4723 14.0368 16.2582 16.5314 16.2582 19.754C16.2582 22.9767 18.5661 25.4712 21.8262 25.4712C24.5281 25.4712 26.5077 23.9772 27.1831 21.2479H21.8731V18.2601H30.1195V28.2006L30.1243 28.2053Z" fill="#EBEBEB"/>
<path id="Vector_3" d="M35.2279 21.2526V28.2053H32.2446V11.2651H39.1636C43.0522 11.2651 45.3602 12.8295 45.3602 16.2589C45.3602 19.6883 43.0522 21.2526 39.1636 21.2526H35.2279ZM35.2279 14.1825V18.2648H39.1636C41.2369 18.2648 42.4237 17.6353 42.4237 16.2589C42.4237 14.8824 41.2369 14.1825 39.1636 14.1825H35.2279Z" fill="#EBEBEB"/>
<path id="Vector_4" d="M46.4063 19.7587C46.4063 14.7179 50.0182 11.0771 54.9342 11.0771C59.034 11.0771 62.205 13.5717 63.1807 17.2829H60.0331C59.17 15.3005 57.3077 14.0414 54.9295 14.0414C51.5755 14.0414 49.3615 16.536 49.3615 19.7587C49.3615 22.9813 51.6694 25.4758 54.9295 25.4758C57.6549 25.4758 59.7517 23.794 60.3333 21.2995H63.3636C62.7116 25.5228 59.3811 28.4166 54.9295 28.4166C50.0135 28.4166 46.4016 24.7994 46.4016 19.7587H46.4063Z" fill="#EBEBEB"/>
<path id="Vector_5" d="M12.0132 33.4998H50.8812C46.6689 39.7431 39.5389 43.8489 31.4472 43.8489C23.3556 43.8489 16.2208 39.7431 12.0132 33.4998Z" fill="#EBEBEB"/>
</g>
<defs>
<clipPath id="clip0_591_15025">
<rect width="63" height="44" fill="white"/>
</clipPath>
</defs>
</svg>
