<svg width="71" height="41" viewBox="0 0 71 41" fill="none" xmlns="http://www.w3.org/2000/svg">
<g id="ICO svg" clip-path="url(#clip0_604_17119)">
<path id="path4" d="M3.17274 3.50778C3.17274 1.59444 4.76718 0 6.77163 0C8.77607 0 10.325 1.59444 10.325 3.50778C10.325 5.46667 8.73052 6.97 6.77163 6.97C4.76718 6.97 3.17274 5.46667 3.17274 3.50778ZM0.71274 28.7911H2.44385C2.99052 28.7911 3.53718 28.1533 3.53718 27.6522V14.0311C3.53718 13.53 2.99052 12.8011 2.44385 12.8011H0.530518V8.83778H9.04941C9.7783 8.83778 10.1427 9.56667 10.1427 11.3433V27.6067C10.1427 28.1533 10.735 28.7456 11.2816 28.7456H13.0127V32.4811H0.71274V28.7911Z" fill="#003768"/>
<path id="path6" d="M14.5161 20.7735C14.5161 13.1657 19.9372 8.51904 27.0894 8.51904C30.7794 8.51904 32.9205 9.3846 34.3327 10.159V15.0335H31.8272C30.8705 14.1224 29.2305 13.3024 27.0894 13.3024C23.6727 13.3024 21.1672 15.8079 21.1672 20.7735C21.1672 25.8757 23.5361 28.0168 26.9072 28.0168C29.6861 28.0168 31.1894 27.0602 32.1916 26.1035H34.4694V30.6135C33.0116 31.5702 30.4605 32.8002 26.8161 32.8002C19.0716 32.8457 14.5161 28.3357 14.5161 20.7735Z" fill="#003768"/>
<path id="path8" d="M54.286 20.819C54.286 15.6713 52.0538 13.1657 48.8649 13.1657C45.676 13.1657 43.4438 15.6713 43.4438 20.819C43.4438 25.9213 45.676 28.1079 48.8649 28.1079C52.0994 28.1535 54.286 25.9213 54.286 20.819ZM36.7927 20.819C36.7927 13.2113 42.2138 8.51904 48.8649 8.51904C55.5616 8.51904 60.9371 13.2113 60.9371 20.819C60.9371 28.3813 55.516 32.8457 48.8649 32.8457C42.2138 32.8457 36.7927 28.3813 36.7927 20.819Z" fill="#003768"/>
<path id="path10" d="M62.8505 29.2011C62.8505 27.1511 64.4905 25.5566 66.5405 25.5566C68.5905 25.5566 70.2305 27.1966 70.2305 29.2011C70.2305 31.2511 68.5449 32.8 66.5405 32.8C64.4449 32.8 62.8505 31.2055 62.8505 29.2011Z" fill="#003768"/>
<path id="path12" d="M68.4994 39.3144C68.5449 38.8589 68.7727 38.6766 69.0461 38.6766C69.3649 38.6766 69.5472 38.8133 69.5472 39.3144H68.4994ZM69.0461 38.2666C68.4083 38.2666 67.9072 38.7677 67.9072 39.5422C67.9072 40.3166 68.3172 40.8177 69.0916 40.8177C69.5472 40.8177 69.8205 40.6811 70.0027 40.5444V40.18H69.8205C69.6838 40.3166 69.4561 40.4077 69.1827 40.4077C68.7727 40.4077 68.5449 40.2255 68.4994 39.6789H70.1394V39.6333C70.1394 39.6333 70.1394 39.5422 70.1394 39.4511C70.0938 38.6766 69.7294 38.2666 69.0461 38.2666ZM67.4516 40.18C67.3605 40.2711 67.1783 40.4077 66.9049 40.4077C66.4949 40.4077 66.2672 40.1344 66.2672 39.5877C66.2672 39.0411 66.5405 38.7677 66.9505 38.7222C67.2238 38.7222 67.3605 38.8133 67.4516 38.9044H67.6794V38.4944C67.5427 38.4033 67.3149 38.3122 66.9505 38.3122C66.2672 38.3122 65.7205 38.8133 65.7205 39.5877C65.7205 40.3622 66.176 40.8633 66.9049 40.8633C67.2694 40.8633 67.5427 40.7266 67.6794 40.59V40.18H67.4516ZM64.9916 37.4922C64.8094 37.4922 64.6727 37.6289 64.6727 37.8111C64.6727 37.9933 64.8094 38.13 64.9916 38.13C65.1738 38.13 65.3105 37.9933 65.3105 37.8111C65.3105 37.6744 65.1738 37.4922 64.9916 37.4922ZM65.0372 38.3122H64.7183V40.7722H65.2649V38.7222C65.2649 38.5855 65.2649 38.4944 65.2194 38.4033C65.2194 38.3577 65.1283 38.3122 65.0372 38.3122ZM64.0805 37.4922C63.6705 37.4922 63.3972 37.72 63.3972 38.1755V38.3577H63.1238V38.7222H63.3972V40.8177H63.9438V38.7222H64.4449V38.3122H63.9438V38.1755C63.9438 37.9477 64.0349 37.9022 64.2172 37.9022H64.3994V37.5377H64.3538C64.3538 37.4922 64.2627 37.4922 64.0805 37.4922ZM62.6227 37.4922C62.2127 37.4922 61.9394 37.72 61.9394 38.1755V38.3577H61.666V38.7222H61.9394V40.8177H62.4861V38.7222H62.9872V38.3122H62.4861V38.1755C62.4861 37.9477 62.5772 37.9022 62.7594 37.9022H62.9872V37.5377H62.9416C62.8961 37.4922 62.8049 37.4922 62.6227 37.4922ZM59.9349 40.4077C59.4338 40.4077 59.0238 40.0433 59.0238 39.1777C59.0238 38.3122 59.4338 37.9477 59.9349 37.9477C60.4361 37.9477 60.8461 38.3577 60.8461 39.1777C60.8005 39.9977 60.4361 40.3622 59.9349 40.4077ZM59.9349 37.4922C59.1149 37.4922 58.4316 38.0844 58.4316 39.1777C58.4316 40.2711 59.1149 40.8633 59.9349 40.8633C60.7549 40.8633 61.4383 40.2711 61.4383 39.1777C61.3927 38.0844 60.7094 37.4922 59.9349 37.4922ZM56.3361 39.2689C55.9716 39.2233 55.8349 39.1322 55.8349 38.9955C55.8349 38.8133 55.9261 38.7222 56.2449 38.7222C56.5183 38.7222 56.6549 38.8133 56.7916 38.9044H56.9738V38.4944C56.7916 38.4033 56.6094 38.3122 56.2449 38.3122C55.6983 38.3122 55.3338 38.5855 55.3338 39.0411C55.3338 39.4966 55.6527 39.7244 56.1083 39.77C56.5183 39.8155 56.5638 39.9066 56.5638 40.0889C56.5638 40.3166 56.4272 40.4077 56.1083 40.4077C55.8349 40.4077 55.6072 40.3166 55.5161 40.18H55.3338V40.59C55.5161 40.6811 55.7438 40.8177 56.1538 40.8177C56.7916 40.8177 57.1105 40.4989 57.1105 40.0433C57.1561 39.5422 56.8827 39.36 56.3361 39.2689ZM54.9694 37.4922C54.7872 37.4922 54.6505 37.6289 54.6505 37.7655C54.6505 37.9022 54.6961 37.9477 54.7872 37.9933C54.8783 38.0389 54.8783 38.0389 54.8783 38.0844C54.8783 38.13 54.8327 38.1755 54.6961 38.2211H54.6505V38.54H54.6961C55.1061 38.4944 55.2883 38.2666 55.2883 37.8566C55.2883 37.6289 55.1516 37.4922 54.9694 37.4922ZM54.1494 38.3122C53.876 38.3122 53.6483 38.4489 53.5116 38.6311C53.5116 38.4033 53.4205 38.3577 53.2838 38.3577H52.9649V40.8177H53.5116V39.0411C53.6483 38.9044 53.8761 38.7677 54.1949 38.7677H54.2861H54.3316V38.3122H54.2861C54.2405 38.3122 54.1949 38.3122 54.1494 38.3122ZM50.9605 39.3144C51.0061 38.8589 51.2338 38.6766 51.5072 38.6766C51.8261 38.6766 52.0083 38.8133 52.0083 39.3144H50.9605ZM51.5072 38.2666C50.8694 38.2666 50.3683 38.7677 50.3683 39.5422C50.3683 40.3166 50.7783 40.8177 51.5527 40.8177C52.0083 40.8177 52.2816 40.6811 52.4638 40.5444V40.18H52.2816C52.1449 40.3166 51.9172 40.4077 51.6438 40.4077C51.2338 40.4077 51.0061 40.2255 50.9605 39.6789H52.6005V39.6333C52.6005 39.6333 52.6005 39.5422 52.6005 39.4511C52.5549 38.6766 52.1449 38.2666 51.5072 38.2666ZM49.3205 38.2666C49.0016 38.2666 48.6827 38.4033 48.4549 38.5855C48.4549 38.4033 48.3638 38.3122 48.2272 38.3122H47.9083V40.7722H48.4549V38.95C48.6372 38.8589 48.8649 38.7222 49.1383 38.7222C49.3661 38.7222 49.4572 38.7677 49.4572 39.0866V40.7722H50.0038V38.95C50.0038 38.4489 49.6849 38.2666 49.3205 38.2666ZM46.9516 39.5877C46.9516 40.18 46.7238 40.4077 46.3138 40.4077C45.9494 40.4077 45.6761 40.1344 45.6761 39.5877C45.6761 38.9955 45.9494 38.7222 46.3138 38.7222C46.7238 38.7222 46.9516 38.9955 46.9516 39.5877ZM46.3138 38.2666C45.6305 38.2666 45.1294 38.7677 45.1294 39.5422C45.1294 40.3166 45.6305 40.8177 46.3138 40.8177C46.9972 40.8177 47.4983 40.3166 47.4983 39.5422C47.4983 38.7677 46.9972 38.2666 46.3138 38.2666ZM44.4916 38.3122H44.1727V40.7722H44.7194V38.7222C44.7194 38.5855 44.7194 38.4944 44.6738 38.4033C44.6283 38.3577 44.5827 38.3122 44.4916 38.3122ZM44.4461 37.4922C44.2638 37.4922 44.1272 37.6289 44.1272 37.8111C44.1272 37.9933 44.2638 38.13 44.4461 38.13C44.6283 38.13 44.7649 37.9933 44.7649 37.8111C44.7649 37.6744 44.6283 37.4922 44.4461 37.4922ZM42.9427 39.2689C42.5783 39.2233 42.4416 39.1322 42.4416 38.9955C42.4416 38.8133 42.5327 38.7222 42.8516 38.7222C43.1249 38.7222 43.2616 38.8133 43.3983 38.9044H43.5805V38.4944C43.3983 38.4033 43.2161 38.3122 42.8516 38.3122C42.3049 38.3122 41.9405 38.5855 41.9405 39.0411C41.9405 39.4966 42.2594 39.7244 42.7149 39.77C43.1249 39.8155 43.1705 39.9066 43.1705 40.0889C43.1705 40.3166 43.0338 40.4077 42.7149 40.4077C42.4416 40.4077 42.2138 40.3166 42.1227 40.18H41.986V40.59C42.1683 40.6811 42.3961 40.8177 42.8061 40.8177C43.4438 40.8177 43.7627 40.4989 43.7627 40.0433C43.7627 39.5422 43.4894 39.36 42.9427 39.2689ZM40.8927 39.2689C40.5283 39.2233 40.3916 39.1322 40.3916 38.9955C40.3916 38.8133 40.4827 38.7222 40.8016 38.7222C41.0749 38.7222 41.2116 38.8133 41.3483 38.9044H41.5305V38.4944C41.3483 38.4033 41.166 38.3122 40.8016 38.3122C40.2549 38.3122 39.8905 38.5855 39.8905 39.0411C39.8905 39.4966 40.2094 39.7244 40.6649 39.77C41.0749 39.8155 41.1205 39.9066 41.1205 40.0889C41.1205 40.3166 40.9838 40.4077 40.6649 40.4077C40.3916 40.4077 40.1638 40.3166 40.0727 40.18H39.8905V40.59C40.0727 40.6811 40.3005 40.8177 40.7105 40.8177C41.3483 40.8177 41.6672 40.4989 41.6672 40.0433C41.7127 39.5422 41.4394 39.36 40.8927 39.2689ZM39.2072 37.4922C39.0249 37.4922 38.8883 37.6289 38.8883 37.8111C38.8883 37.9933 39.0249 38.13 39.2072 38.13C39.3894 38.13 39.5261 37.9933 39.5261 37.8111C39.5261 37.6744 39.3894 37.4922 39.2072 37.4922ZM39.2527 38.3122H38.9338V40.7722H39.4805V38.7222C39.4805 38.5855 39.4805 38.4944 39.4349 38.4033C39.3894 38.3577 39.3438 38.3122 39.2527 38.3122ZM37.7494 38.2666C37.4305 38.2666 37.1116 38.4033 36.8838 38.5855C36.7927 38.3577 36.5649 38.2666 36.2916 38.2666C35.9727 38.2666 35.6994 38.4033 35.4716 38.5855C35.4716 38.4033 35.3805 38.3122 35.2438 38.3122H34.9249V40.7722H35.4716V38.95C35.6538 38.8133 35.8361 38.7222 36.0638 38.7222C36.2916 38.7222 36.3372 38.7677 36.3827 39.0411V40.7722H36.9294V38.95C37.1116 38.8589 37.2938 38.7222 37.5216 38.7222C37.7494 38.7222 37.8405 38.7677 37.8405 39.0411V40.7722H38.3872V38.95C38.3872 38.4489 38.1138 38.2666 37.7494 38.2666ZM33.786 38.2666C33.4672 38.2666 33.1483 38.4033 32.9205 38.5855C32.8294 38.3577 32.6016 38.2666 32.3738 38.2666C32.0549 38.2666 31.7816 38.4033 31.5538 38.5855C31.5538 38.4033 31.4627 38.3122 31.326 38.3122H31.0072V40.7722H31.5083V38.95C31.6905 38.8133 31.8727 38.7222 32.1005 38.7222C32.3283 38.7222 32.3738 38.7677 32.4194 39.0411V40.7722H32.966V38.95C33.1483 38.8589 33.3305 38.7222 33.5583 38.7222C33.786 38.7222 33.8772 38.7677 33.8772 39.0411V40.7722H34.4238V38.95C34.4238 38.4489 34.1049 38.2666 33.786 38.2666ZM29.3672 40.4077C29.0027 40.4077 28.7294 40.1344 28.7294 39.5877C28.7294 38.9955 29.0027 38.7222 29.3672 38.7222C29.7316 38.7222 30.0049 38.9955 30.0049 39.5877C30.0049 40.1344 29.7772 40.4077 29.3672 40.4077ZM29.3672 38.2666C28.6838 38.2666 28.1827 38.7677 28.1827 39.5422C28.1827 40.3166 28.6838 40.8177 29.3672 40.8177C30.0505 40.8177 30.5516 40.3166 30.5516 39.5422C30.5516 38.7677 30.0505 38.2666 29.3672 38.2666ZM27.6816 40.0433C27.4994 40.2255 27.2716 40.3622 26.8616 40.3622C26.2694 40.3622 25.9505 39.9522 25.9505 39.1322C25.9505 38.3122 26.3149 37.9477 26.9072 37.9477C27.2716 37.9477 27.4538 38.0844 27.5905 38.2211H27.8638V37.7655C27.636 37.6289 27.3627 37.4922 26.9072 37.4922C26.0416 37.4922 25.4038 38.13 25.4038 39.1777C25.4038 40.2255 25.996 40.8633 26.8616 40.8633C27.3172 40.8633 27.6816 40.7266 27.9094 40.4989V40.0433H27.6816ZM23.3083 38.2666C22.9894 38.2666 22.6705 38.4033 22.4427 38.5855C22.4427 38.4033 22.3516 38.3122 22.2149 38.3122H21.896V40.7722H22.4427V38.95C22.6249 38.8589 22.8527 38.7222 23.126 38.7222C23.3538 38.7222 23.4449 38.7677 23.4449 39.0866V40.7722H23.9916V38.95C23.9916 38.4489 23.6727 38.2666 23.3083 38.2666ZM20.9394 39.5877C20.9394 40.18 20.7116 40.4077 20.3016 40.4077C19.9372 40.4077 19.6638 40.1344 19.6638 39.5877C19.6638 38.9955 19.9372 38.7222 20.3016 38.7222C20.7116 38.7222 20.9394 38.9955 20.9394 39.5877ZM20.3016 38.2666C19.6183 38.2666 19.1172 38.7677 19.1172 39.5422C19.1172 40.3166 19.6183 40.8177 20.3016 40.8177C20.9849 40.8177 21.486 40.3166 21.486 39.5422C21.486 38.7677 20.9849 38.2666 20.3016 38.2666ZM18.4338 37.4922C18.2516 37.4922 18.1149 37.6289 18.1149 37.8111C18.1149 37.9933 18.2516 38.13 18.4338 38.13C18.616 38.13 18.7527 37.9933 18.7527 37.8111C18.7527 37.6744 18.616 37.4922 18.4338 37.4922ZM18.4794 38.3122H18.1605V40.7722H18.7072V38.7222C18.7072 38.5855 18.7072 38.4944 18.6616 38.4033C18.616 38.3577 18.5705 38.3122 18.4794 38.3122ZM17.2494 40.1344V38.7222H17.796V38.3122H17.2494V37.6744H16.7027V38.3122H16.4294V38.7222H16.7027V40.18C16.7027 40.6355 16.976 40.8177 17.386 40.8177C17.5683 40.8177 17.7049 40.7722 17.796 40.7722H17.8416V40.4077H17.6138C17.2949 40.4077 17.2494 40.3622 17.2494 40.1344ZM15.5183 40.18C15.3816 40.3166 15.2449 40.4533 15.0172 40.4533C14.7894 40.4533 14.6072 40.3622 14.6072 40.0433C14.6072 39.77 14.7894 39.6789 15.1083 39.6789C15.2449 39.6789 15.3816 39.6789 15.5183 39.7244V40.18ZM15.1538 38.2666C14.7438 38.2666 14.4705 38.3577 14.2883 38.4944V38.9044H14.4705C14.6072 38.8133 14.8349 38.7222 15.1083 38.7222C15.4272 38.7222 15.5638 38.8133 15.5638 39.0866V39.36C15.4272 39.3144 15.2449 39.3144 15.0627 39.3144C14.516 39.3144 14.106 39.5422 14.106 40.0889C14.106 40.59 14.4249 40.8633 14.8805 40.8633C15.1994 40.8633 15.3816 40.7722 15.5638 40.59C15.6094 40.7722 15.7005 40.8177 15.8827 40.8177H16.1105V39.0866C16.0649 38.4944 15.746 38.2666 15.1538 38.2666ZM13.0583 38.2666C12.7394 38.2666 12.4205 38.4033 12.1927 38.5855C12.1016 38.3577 11.8738 38.2666 11.646 38.2666C11.3272 38.2666 11.0538 38.4033 10.826 38.5855C10.826 38.4033 10.7349 38.3122 10.5983 38.3122H10.2794V40.7722H10.826V38.95C11.0083 38.8133 11.1905 38.7222 11.4183 38.7222C11.646 38.7222 11.6916 38.7677 11.7372 39.0411V40.7722H12.2838V38.95C12.466 38.8589 12.6483 38.7222 12.876 38.7222C13.1038 38.7222 13.1949 38.7677 13.1949 39.0411V40.7722H13.7416V38.95C13.696 38.4489 13.4227 38.2666 13.0583 38.2666ZM9.73272 38.3122C9.45938 38.3122 9.2316 38.4489 9.09494 38.6311C9.09494 38.4033 9.00383 38.3577 8.86716 38.3577H8.54827V40.8177H9.09494V39.0411C9.2316 38.9044 9.45938 38.7677 9.77827 38.7677H9.86938H9.91494V38.3122H9.86938C9.82383 38.3122 9.77827 38.3122 9.73272 38.3122ZM6.95383 40.4077C6.58938 40.4077 6.31605 40.1344 6.31605 39.5877C6.31605 38.9955 6.58938 38.7222 6.95383 38.7222C7.36383 38.7222 7.5916 38.9955 7.5916 39.5877C7.5916 40.1344 7.31827 40.4077 6.95383 40.4077ZM6.95383 38.2666C6.27049 38.2666 5.76938 38.7677 5.76938 39.5422C5.76938 40.3166 6.27049 40.8177 6.95383 40.8177C7.63716 40.8177 8.13827 40.3166 8.13827 39.5422C8.13827 38.7677 7.63716 38.2666 6.95383 38.2666ZM5.31383 37.4922C4.90383 37.4922 4.63049 37.72 4.63049 38.1755V38.3577H4.3116V38.7222H4.63049V40.8177H5.17716V38.7222H5.67827V38.3122H5.17716V38.1755C5.17716 37.9477 5.26827 37.9022 5.45049 37.9022H5.67827V37.5377H5.63271C5.58716 37.4922 5.45049 37.4922 5.31383 37.4922ZM3.35494 38.2666C3.03605 38.2666 2.71716 38.4033 2.44383 38.5855C2.44383 38.4033 2.35271 38.3122 2.21605 38.3122H1.94271V40.7722H2.48938V38.95C2.6716 38.8589 2.89938 38.7222 3.17271 38.7222C3.40049 38.7222 3.4916 38.7677 3.4916 39.0866V40.7722H4.03827V38.95C3.99271 38.4489 3.67383 38.2666 3.35494 38.2666ZM0.75827 40.8177H1.35049V37.5377H0.75827V40.8177Z" fill="#003768"/>
</g>
<defs>
<clipPath id="clip0_604_17119">
<rect width="69.7" height="41" fill="white" transform="translate(0.530518)"/>
</clipPath>
</defs>
</svg>
