<svg width="32" height="32" viewBox="0 0 32 32" fill="none" xmlns="http://www.w3.org/2000/svg">
<g id="Frame">
<path id="Vector" d="M5.3348 4H26.6682C27.4046 4 28.0015 4.59696 28.0015 5.33333V26.6667C28.0015 27.4031 27.4046 28 26.6682 28H5.3348C4.59841 28 4.00146 27.4031 4.00146 26.6667V5.33333C4.00146 4.59696 4.59841 4 5.3348 4ZM6.66813 6.66667V25.3333H25.3348V6.66667H6.66813ZM10.0015 12C8.89689 12 8.00146 11.1046 8.00146 10C8.00146 8.89543 8.89689 8 10.0015 8C11.106 8 12.0015 8.89543 12.0015 10C12.0015 11.1046 11.106 12 10.0015 12ZM8.66813 13.3333H11.3348V23.3333H8.66813V13.3333ZM16.0015 13.906C16.7807 13.1538 17.6888 12.6667 18.6682 12.6667C21.4295 12.6667 23.3348 14.9052 23.3348 17.6667V23.3333H20.6682V17.6667C20.6682 16.378 19.6235 15.3333 18.3348 15.3333C17.0462 15.3333 16.0015 16.378 16.0015 17.6667V23.3333H13.3348V13.3333H16.0015V13.906Z" fill="#04A44C"/>
</g>
</svg>
