<svg width="41" height="40" viewBox="0 0 41 40" fill="none" xmlns="http://www.w3.org/2000/svg">
<rect x="0.333496" width="40" height="40" rx="4" fill="#04A44C"/>
<path d="M20.3335 28.8995L25.2832 23.9497C28.0169 21.2161 28.0169 16.7839 25.2832 14.0503C22.5496 11.3166 18.1174 11.3166 15.3837 14.0503C12.6501 16.7839 12.6501 21.2161 15.3837 23.9497L20.3335 28.8995ZM20.3335 31.7279L13.9695 25.364C10.4548 21.8492 10.4548 16.1508 13.9695 12.636C17.4843 9.12132 23.1827 9.12132 26.6975 12.636C30.2122 16.1508 30.2122 21.8492 26.6975 25.364L20.3335 31.7279ZM20.3335 21C21.4381 21 22.3335 20.1046 22.3335 19C22.3335 17.8954 21.4381 17 20.3335 17C19.2289 17 18.3335 17.8954 18.3335 19C18.3335 20.1046 19.2289 21 20.3335 21ZM20.3335 23C18.1244 23 16.3335 21.2091 16.3335 19C16.3335 16.7909 18.1244 15 20.3335 15C22.5426 15 24.3335 16.7909 24.3335 19C24.3335 21.2091 22.5426 23 20.3335 23Z" fill="white"/>
</svg>
