<svg width="45" height="48" viewBox="0 0 45 48" fill="none" xmlns="http://www.w3.org/2000/svg">
<g id="Treasure Vince 1" clip-path="url(#clip0_720_813)">
<g id="Layer 2">
<g id="Layer 1">
<path id="Vector" d="M5.14886 47.9648C5.96125 45.0439 8.1125 43.5325 10.8721 42.9393C13.5701 42.3701 16.3218 42.0948 19.0791 42.1181C18.1382 42.3927 17.1898 42.6509 16.2578 42.9469C15.3572 43.2315 14.468 43.5539 13.6531 44.1673C18.7491 45.85 23.3778 43.9771 28.1198 42.5023C26.878 44.6107 25.0592 45.9407 22.8299 46.7191C18.3548 48.2834 13.7727 48.1801 9.14026 47.6272C8.26742 47.5239 7.36057 47.704 6.45624 47.8577C6.15647 47.9093 5.34661 48.0693 5.14886 47.9648Z" fill="#00A745"/>
<path id="Vector_2" d="M2.19658 26.946C2.5568 31.1767 2.50642 35.4956 4.90579 39.1633C4.83652 37.4881 5.11109 35.7513 5.0393 34.0257C7.59737 38.2892 7.48023 44.384 4.36924 47.0466C2.9145 42.6861 1.34641 38.5864 0.212847 34.3708C-0.467289 31.8329 0.544099 29.0733 2.19658 26.946Z" fill="#00A745"/>
<path id="Vector_3" d="M9.17045 13.6027H7.69934V12.9515H11.3116V13.6027H9.84177V17.914H9.17045V13.6027Z" fill="#00662A"/>
<path id="Vector_4" d="M14.6758 17.9165L13.3873 15.9013H12.7021V17.9165H12.0308V12.9541H13.7161C14.2123 12.9541 14.5952 13.1019 14.8647 13.3974C14.9975 13.5344 15.1021 13.6963 15.1723 13.8737C15.2425 14.0511 15.2771 14.2407 15.2741 14.4315C15.2781 14.7656 15.1646 15.0904 14.9535 15.3494C14.7425 15.6084 14.4471 15.785 14.1191 15.8484L15.5046 17.9165H14.6758ZM12.7021 13.5914V15.2703H13.5838C14.2551 15.2703 14.5839 14.9013 14.5839 14.4239C14.5839 13.9466 14.2753 13.5914 13.7173 13.5914H12.7021Z" fill="#00662A"/>
<path id="Vector_5" d="M16.3345 17.9165V12.9541H19.4241V13.5914H17.0033V15.0763H19.2402V15.7137H17.0033V17.278H19.4216V17.9165H16.3345Z" fill="#00662A"/>
<path id="Vector_6" d="M23.5063 17.9165L23.0025 16.6268H21.1132L20.6094 17.9165H19.8776L21.8853 12.9541H22.248L24.2355 17.9165H23.5063ZM22.0629 14.1216L21.3437 15.9958H22.7745L22.0629 14.1216Z" fill="#00662A"/>
<path id="Vector_7" d="M24.3791 16.9757L24.8766 16.5664C25.1449 17.0966 25.5819 17.3586 26.0643 17.3586C26.6286 17.3586 26.9787 17.0299 26.9787 16.6029C26.9787 16.3346 26.8036 16.1067 26.4611 15.9114C26.3742 15.8648 26.1991 15.7855 25.951 15.6696C25.7028 15.5537 25.5215 15.4618 25.393 15.3875C24.8967 15.0726 24.6486 14.6759 24.6486 14.2061C24.6437 14.027 24.6778 13.849 24.7485 13.6843C24.8192 13.5197 24.9248 13.3724 25.058 13.2526C25.3543 12.9837 25.7452 12.8433 26.1449 12.8622C26.4304 12.8536 26.7135 12.9169 26.9681 13.0463C27.2228 13.1757 27.4408 13.3671 27.6022 13.6028L27.1525 14.0322C27.0418 13.869 26.8927 13.7353 26.7184 13.6429C26.5441 13.5504 26.3498 13.5021 26.1525 13.502C25.7028 13.502 25.3665 13.7703 25.3665 14.1733C25.3665 14.4353 25.5076 14.6431 25.7897 14.8106C25.9767 14.9193 26.1693 15.0181 26.3666 15.1066C26.6689 15.2477 26.878 15.3585 26.9964 15.4215C27.4737 15.7112 27.7155 16.0941 27.7155 16.5765C27.7218 16.7725 27.6826 16.9674 27.6009 17.1457C27.5191 17.3241 27.3971 17.481 27.2445 17.6042C26.9166 17.8743 26.5014 18.0154 26.0769 18.001C25.7253 18.0116 25.378 17.9206 25.0768 17.7387C24.7757 17.5568 24.5334 17.2919 24.3791 16.9757Z" fill="#00662A"/>
<path id="Vector_8" d="M28.5556 12.9541H29.2282V16.1217C29.2282 16.9077 29.6375 17.3447 30.3554 17.3447C31.0734 17.3447 31.4777 16.8938 31.4777 16.1217V12.9541H32.1553V16.2477C32.1553 16.7918 31.9878 17.2213 31.659 17.5374C31.3303 17.8536 30.8933 18.0072 30.3554 18.0072C29.8176 18.0072 29.3818 17.8523 29.0531 17.5374C28.7244 17.2226 28.5556 16.7918 28.5556 16.2477V12.9541Z" fill="#00662A"/>
<path id="Vector_9" d="M35.9968 17.9165L34.7071 15.9013H34.0219V17.9165H33.3506V12.9541H35.0358C35.5337 12.9541 35.9166 13.1019 36.1845 13.3974C36.3173 13.5344 36.4218 13.6963 36.4921 13.8737C36.5623 14.0511 36.5969 14.2407 36.5938 14.4315C36.5978 14.7656 36.4844 15.0904 36.2733 15.3494C36.0622 15.6084 35.7669 15.785 35.4389 15.8484L36.8243 17.9165H35.9968ZM34.0219 13.5914V15.2703H34.9036C35.5749 15.2703 35.9036 14.9013 35.9036 14.4239C35.9036 13.9466 35.595 13.5914 35.0383 13.5914H34.0219Z" fill="#00662A"/>
<path id="Vector_10" d="M37.6594 17.9165V12.9541H40.7489V13.5914H38.3269V15.0763H40.5625V15.7137H38.3269V17.278H40.7439V17.9165H37.6594Z" fill="#00662A"/>
<path id="Vector_11" d="M9.51052 37.8886C8.58982 36.9931 8.13513 35.8444 8.13513 34.4439C8.13513 33.0433 8.60241 31.8656 9.53571 30.9626C9.98393 30.5152 10.5178 30.1628 11.1054 29.9264C11.6929 29.6901 12.3221 29.5747 12.9553 29.5872C14.633 29.5872 16.1469 30.3693 16.9668 31.5419L15.7942 32.6654C15.0385 31.7195 14.1153 31.2523 13.0309 31.2523C12.6183 31.2441 12.2085 31.3204 11.8267 31.4766C11.4448 31.6328 11.0989 31.8655 10.8103 32.1604C10.5149 32.461 10.2834 32.8183 10.1295 33.2107C9.97558 33.6031 9.90257 34.0225 9.91482 34.4439C9.91482 35.3406 10.2045 36.0812 10.7965 36.677C11.087 36.9675 11.4338 37.1955 11.8157 37.3471C12.1975 37.4987 12.6063 37.5707 13.017 37.5586C14.1644 37.5586 15.099 37.0914 15.8307 36.1455L17.0285 37.2299C16.1582 38.4038 14.6443 39.2111 12.9288 39.2111C11.5799 39.2136 10.4312 38.7715 9.51052 37.8886Z" fill="#00662A"/>
<path id="Vector_12" d="M23.869 39.0751L23.0994 36.9553H19.7945L19.0186 39.0751H17.1948L20.8033 29.7547H22.1283L25.699 39.0751H23.869ZM21.4595 32.2107L20.2983 35.4036H22.6069L21.4595 32.2107Z" fill="#00662A"/>
<path id="Vector_13" d="M31.8303 39.0751L29.7483 35.5799H28.6009V39.0751H26.8842V29.7547H30.3542C31.3618 29.7547 32.1339 30.0318 32.6755 30.5998C32.9412 30.8736 33.1495 31.1977 33.2884 31.553C33.4272 31.9083 33.4938 32.2878 33.4841 32.6692C33.4841 33.8809 32.8279 34.9653 31.528 35.3822L33.8808 39.0751H31.8303ZM28.6009 31.353V34.0282H30.1652C31.2119 34.0282 31.717 33.435 31.717 32.678C31.717 31.9211 31.2132 31.353 30.3542 31.353H28.6009Z" fill="#00662A"/>
<path id="Vector_14" d="M35.3003 39.0751V29.7547H41.4958V31.3618H37.0296V33.5572H41.1545V35.1593H37.0296V37.4554H41.4958V39.0713L35.3003 39.0751Z" fill="#00662A"/>
<path id="Vector_15" d="M14.0788 19.9998H15.696L12.4818 27.7596H11.3898L8.14526 19.9998H9.79397L11.9465 25.5013L14.0788 19.9998Z" fill="#00662A"/>
<path id="Vector_16" d="M16.6621 19.9998H18.1005V27.7596H16.6621V19.9998Z" fill="#00662A"/>
<path id="Vector_17" d="M24.99 19.9998H26.4069V27.7596H25.4724L21.3034 22.8236V27.7596H19.8864V19.9998H20.7467L24.99 24.9761V19.9998Z" fill="#00662A"/>
<path id="Vector_18" d="M28.8856 26.7722C28.1198 26.0266 27.7419 25.0706 27.7419 23.9055C27.7419 22.7405 28.1299 21.7644 28.907 21.0087C29.28 20.6364 29.7242 20.3432 30.213 20.1465C30.7019 19.9498 31.2254 19.8536 31.7522 19.8638C33.149 19.8638 34.4098 20.5149 35.0925 21.4911L34.1151 22.4193C33.4853 21.6321 32.7195 21.2442 31.8152 21.2442C31.472 21.2376 31.131 21.3012 30.8133 21.4312C30.4956 21.5612 30.2077 21.7547 29.9675 21.9999C29.7207 22.2506 29.5273 22.5487 29.3989 22.8762C29.2706 23.2038 29.2099 23.5539 29.2206 23.9055C29.2104 24.248 29.2701 24.589 29.3962 24.9076C29.5223 25.2262 29.712 25.5157 29.9538 25.7584C30.1956 26.0012 30.4844 26.1921 30.8025 26.3194C31.1206 26.4467 31.4614 26.5078 31.8039 26.4989C32.7598 26.4989 33.537 26.1109 34.1453 25.3237L35.1428 26.2268C34.4186 27.2029 33.1591 27.8755 31.7308 27.8755C30.6061 27.8755 29.6526 27.5077 28.8856 26.7722Z" fill="#00662A"/>
<path id="Vector_19" d="M36.2589 27.7596V19.9998H41.414V21.3437H37.6972V23.175H41.1306V24.5088H37.6972V26.4208H41.414V27.7596H36.2589Z" fill="#00662A"/>
<path id="Vector_20" d="M4.26599 11.6114C8.86195 9.05713 12.871 5.59221 16.3422 1.93711C18.37 -0.196506 19.4293 -0.872864 22.1977 1.48242C27.504 5.99651 35.716 8.76744 35.716 8.76744L35.7475 6.44238C35.7491 6.33494 35.7721 6.2289 35.8153 6.13048C35.8584 6.03206 35.9207 5.94323 35.9986 5.86922C36.0765 5.79519 36.1684 5.73747 36.2689 5.69942C36.3694 5.66137 36.4764 5.64376 36.5838 5.64763L38.2993 5.71438C38.509 5.72225 38.7073 5.81171 38.852 5.9637C38.9967 6.11569 39.0763 6.31819 39.0739 6.52803L39.0449 8.98534C39.0425 9.18995 39.0986 9.391 39.2066 9.56481C39.3146 9.73863 39.47 9.87799 39.6545 9.9665C40.7881 10.5169 42.8826 11.2613 44.6031 11.5447C30.4991 12.1593 19.2706 2.67266 19.2706 2.67266C19.2706 2.67266 14.3673 9.52693 4.26599 11.6114Z" fill="#00A745"/>
</g>
</g>
</g>
<defs>
<clipPath id="clip0_720_813">
<rect width="44.6056" height="48" fill="white"/>
</clipPath>
</defs>
</svg>
