<?xml version="1.0" encoding="UTF-8"?><svg id="Layer_2" xmlns="http://www.w3.org/2000/svg" viewBox="0 0 605.02 227.49"><defs><style>.cls-1{fill:#00a745;}.cls-2{font-size:59.8px;}.cls-2,.cls-3,.cls-4{font-family:Axiforma-SemiBold, Axiforma;font-weight:600;}.cls-2,.cls-3,.cls-4,.cls-5{fill:#00662a;}.cls-3{font-size:59.37px;}.cls-6{letter-spacing:-.02em;}.cls-7{letter-spacing:-.02em;}.cls-8{fill:none;stroke:#00662a;stroke-miterlimit:10;stroke-width:2.72px;}.cls-4{font-size:49.77px;}.cls-5{font-family:Axiforma-Regular, Axiforma;font-size:31.83px;}</style></defs><g id="Layer_1-2"><g><g><g><path class="cls-1" d="m24.4,227.33c3.85-13.85,14.04-21.01,27.13-23.82,12.62-2.71,25.55-3.94,38.9-3.89-4.46,1.3-8.94,2.53-13.37,3.93-4.27,1.35-8.48,2.88-12.35,5.78,24.15,7.97,46.09-.9,68.57-7.89-5.89,9.99-14.51,16.29-25.05,19.98-21.21,7.42-42.92,6.93-64.88,4.31-4.14-.49-8.44.36-12.72,1.09-1.44.25-5.28,1-6.22.51Z"/><path class="cls-1" d="m10.41,127.71c1.71,20.05,1.47,40.52,12.84,57.9h0c-.33-7.94.97-16.17.63-24.35,12.12,20.23,11.57,49.1-3.18,61.72-6.89-20.67-14.3-40.1-19.68-60.08-3.24-12.03,1.55-25.11,9.39-35.19Z"/></g><text class="cls-5" transform="translate(36.05 84.91)"><tspan x="0" y="0">TRE</tspan><tspan class="cls-6" x="57.79" y="0">A</tspan><tspan x="78.64" y="0">SURE</tspan></text><text class="cls-2" transform="translate(36.05 185.19)"><tspan class="cls-7" x="0" y="0">C</tspan><tspan x="44.97" y="0">ARE</tspan></text><text class="cls-4" transform="translate(38.35 131.56)"><tspan x="0" y="0">VINCE</tspan></text><path class="cls-1" d="m20.22,55.03c21.78-12.11,40.78-28.53,57.24-45.85,9.61-10.11,14.63-13.32,27.75-2.15,25.15,21.39,64.07,34.52,64.07,34.52l.15-11.01c.03-2.15,1.82-3.85,3.97-3.77l8.13.31c2.07.08,3.69,1.79,3.67,3.86l-.12,11.65c-.02,1.98,1.11,3.79,2.89,4.65,5.39,2.61,15.3,6.13,23.45,7.48-66.86,2.91-120.1-42.05-120.1-42.05,0,0-23.21,32.49-71.08,42.37Z"/></g><g><text class="cls-3" transform="translate(249.25 140.02)"><tspan x="0" y="0">HAMSPHIRE</tspan></text><line class="cls-8" x1="224.73" y1="7.81" x2="224.73" y2="220.68"/></g></g></g></svg>