<svg width="41" height="40" viewBox="0 0 41 40" fill="none" xmlns="http://www.w3.org/2000/svg">
<rect x="0.666504" width="40" height="40" rx="4" fill="#04A44C"/>
<path d="M18.0321 18.6821C18.9685 20.3288 20.3377 21.698 21.9844 22.6344L22.8689 21.3961C23.163 20.9845 23.7181 20.8573 24.1621 21.0998C25.5689 21.8683 27.1236 22.3353 28.7454 22.4637C29.2655 22.5049 29.6665 22.9389 29.6665 23.4606V27.9234C29.6665 28.4361 29.2787 28.8657 28.7687 28.9181C28.2388 28.9726 27.7042 29 27.1665 29C18.6061 29 11.6665 22.0604 11.6665 13.5C11.6665 12.9623 11.6939 12.4277 11.7484 11.8978C11.8008 11.3877 12.2304 11 12.7432 11H17.2059C17.7276 11 18.1616 11.401 18.2028 11.9211C18.3312 13.5429 18.7982 15.0976 19.5667 16.5044C19.8092 16.9484 19.682 17.5035 19.2704 17.7976L18.0321 18.6821ZM15.5108 18.0252L17.4107 16.6681C16.872 15.5051 16.5028 14.2718 16.3138 13H13.6756C13.6695 13.1663 13.6665 13.333 13.6665 13.5C13.6665 20.9558 19.7107 27 27.1665 27C27.3335 27 27.5002 26.997 27.6665 26.9909V24.3527C26.3947 24.1637 25.1614 23.7945 23.9984 23.2558L22.6413 25.1558C22.0923 24.9425 21.5621 24.6915 21.0539 24.4061L20.9958 24.373C19.0362 23.2587 17.4078 21.6303 16.2935 19.6707L16.2604 19.6126C15.975 19.1044 15.724 18.5742 15.5108 18.0252Z" fill="white"/>
</svg>
