<svg width="24" height="24" viewBox="0 0 24 24" fill="none" xmlns="http://www.w3.org/2000/svg">
<g id="Frame">
<path id="Vector" d="M10.0075 2.10377C8.60593 1.65006 7.0823 2.28116 6.41205 3.59306L5.60627 5.17023C5.51053 5.35763 5.35812 5.51004 5.17072 5.60578L3.59355 6.41156C2.28165 7.08181 1.65055 8.60544 2.10426 10.007L2.64972 11.692C2.71452 11.8922 2.71452 12.1078 2.64972 12.308L2.10426 13.993C1.65055 15.3946 2.28165 16.9182 3.59355 17.5885L5.17072 18.3942C5.35812 18.49 5.51053 18.6424 5.60627 18.8298L6.41205 20.407C7.0823 21.7189 8.60593 22.35 10.0075 21.8963L11.6925 21.3508C11.8927 21.286 12.1083 21.286 12.3085 21.3508L13.9935 21.8963C15.3951 22.35 16.9187 21.7189 17.589 20.407L18.3947 18.8298C18.4905 18.6424 18.6429 18.49 18.8303 18.3942L20.4075 17.5885C21.7194 16.9182 22.3505 15.3946 21.8968 13.993L21.3513 12.308C21.2865 12.1078 21.2865 11.8922 21.3513 11.692L21.8968 10.007C22.3505 8.60544 21.7194 7.08181 20.4075 6.41156L18.8303 5.60578C18.6429 5.51004 18.4905 5.35763 18.3947 5.17023L17.589 3.59306C16.9187 2.28116 15.3951 1.65006 13.9935 2.10377L12.3085 2.64923C12.1083 2.71403 11.8927 2.71404 11.6925 2.64923L10.0075 2.10377ZM8.19307 4.50299C8.41649 4.06569 8.92437 3.85532 9.39156 4.00656L11.0766 4.55201C11.6772 4.74644 12.3238 4.74644 12.9244 4.55201L14.6095 4.00656C15.0766 3.85532 15.5845 4.06569 15.8079 4.50298L16.6137 6.08016C16.9009 6.64234 17.3582 7.09958 17.9204 7.3868L19.4975 8.19258C19.9348 8.416 20.1452 8.92388 19.994 9.39107L19.4485 11.0761C19.2541 11.6767 19.2541 12.3233 19.4485 12.9239L19.994 14.609C20.1452 15.0761 19.9348 15.584 19.4975 15.8074L17.9204 16.6132C17.3582 16.9004 16.9009 17.3577 16.6137 17.9199L15.8079 19.497C15.5845 19.9343 15.0766 20.1447 14.6095 19.9935L12.9244 19.448C12.3238 19.2536 11.6772 19.2536 11.0766 19.448L9.39156 19.9935C8.92437 20.1447 8.41649 19.9343 8.19307 19.497L7.38729 17.9199C7.10007 17.3577 6.64283 16.9004 6.08065 16.6132L4.50348 15.8074C4.06618 15.584 3.85581 15.0761 4.00705 14.609L4.5525 12.9239C4.74693 12.3233 4.74693 11.6767 4.5525 11.0761L4.00705 9.39107C3.85581 8.92388 4.06618 8.416 4.50348 8.19258L6.08065 7.3868C6.64283 7.09958 7.10007 6.64234 7.38729 6.08016L8.19307 4.50299ZM6.76009 11.7574L11.0027 16L18.0738 8.92897L16.6596 7.51476L11.0027 13.1716L8.17431 10.3431L6.76009 11.7574Z" fill="#04A44C"/>
</g>
</svg>
