<svg width="48" height="48" viewBox="0 0 48 48" fill="none" xmlns="http://www.w3.org/2000/svg">
<rect width="48" height="48" rx="12" fill="#FDF5F3"/>
<path d="M24 26V28C20.6863 28 18 30.6863 18 34H16C16 29.5817 19.5817 26 24 26ZM24 25C20.685 25 18 22.315 18 19C18 15.685 20.685 13 24 13C27.315 13 30 15.685 30 19C30 22.315 27.315 25 24 25ZM24 23C26.21 23 28 21.21 28 19C28 16.79 26.21 15 24 15C21.79 15 20 16.79 20 19C20 21.21 21.79 23 24 23ZM30 33.5L27.0611 35.0451L27.6224 31.7725L25.2447 29.4549L28.5305 28.9775L30 26L31.4695 28.9775L34.7553 29.4549L32.3776 31.7725L32.9389 35.0451L30 33.5Z" fill="#04A44C"/>
</svg>
