<svg width="48" height="48" viewBox="0 0 48 48" fill="none" xmlns="http://www.w3.org/2000/svg">
<rect width="48" height="48" rx="12" fill="#FDF5F3"/>
<path d="M22.007 14.1038C20.6054 13.6501 19.0818 14.2812 18.4116 15.5931L17.6058 17.1702C17.51 17.3576 17.3576 17.51 17.1702 17.6058L15.5931 18.4116C14.2812 19.0818 13.6501 20.6054 14.1038 22.007L14.6492 23.692C14.714 23.8922 14.714 24.1078 14.6492 24.308L14.1038 25.993C13.6501 27.3946 14.2812 28.9182 15.5931 29.5885L17.1702 30.3942C17.3576 30.49 17.51 30.6424 17.6058 30.8298L18.4116 32.407C19.0818 33.7189 20.6054 34.35 22.007 33.8963L23.692 33.3508C23.8922 33.286 24.1078 33.286 24.308 33.3508L25.993 33.8963C27.3946 34.35 28.9182 33.7189 29.5885 32.407L30.3942 30.8298C30.49 30.6424 30.6424 30.49 30.8298 30.3942L32.407 29.5885C33.7189 28.9182 34.35 27.3946 33.8963 25.993L33.3508 24.308C33.286 24.1078 33.286 23.8922 33.3508 23.692L33.8963 22.007C34.35 20.6054 33.7189 19.0818 32.407 18.4116L30.8298 17.6058C30.6424 17.51 30.49 17.3576 30.3942 17.1702L29.5885 15.5931C28.9182 14.2812 27.3946 13.6501 25.993 14.1038L24.308 14.6492C24.1078 14.714 23.8922 14.714 23.692 14.6492L22.007 14.1038ZM20.1926 16.503C20.416 16.0657 20.9239 15.8553 21.3911 16.0066L23.0761 16.552C23.6767 16.7464 24.3233 16.7464 24.9239 16.552L26.609 16.0066C27.0761 15.8553 27.584 16.0657 27.8074 16.503L28.6132 18.0802C28.9004 18.6423 29.3577 19.0996 29.9199 19.3868L31.497 20.1926C31.9343 20.416 32.1447 20.9239 31.9935 21.3911L31.448 23.0761C31.2536 23.6767 31.2536 24.3233 31.448 24.9239L31.9935 26.609C32.1447 27.0761 31.9343 27.584 31.497 27.8074L29.9199 28.6132C29.3577 28.9004 28.9004 29.3577 28.6132 29.9199L27.8074 31.497C27.584 31.9343 27.0761 32.1447 26.609 31.9935L24.9239 31.448C24.3233 31.2536 23.6767 31.2536 23.0761 31.448L21.3911 31.9935C20.9239 32.1447 20.416 31.9343 20.1926 31.497L19.3868 29.9199C19.0996 29.3577 18.6423 28.9004 18.0802 28.6132L16.503 27.8074C16.0657 27.584 15.8553 27.0761 16.0066 26.609L16.552 24.9239C16.7464 24.3233 16.7464 23.6767 16.552 23.0761L16.0066 21.3911C15.8553 20.9239 16.0657 20.416 16.503 20.1926L18.0802 19.3868C18.6423 19.0996 19.0996 18.6423 19.3868 18.0802L20.1926 16.503ZM18.7596 23.7574L23.0022 28L30.0733 20.929L28.6591 19.5148L23.0022 25.1716L20.1738 22.3431L18.7596 23.7574Z" fill="#04A44C"/>
</svg>
