<svg width="154" height="136" viewBox="0 0 154 136" fill="none" xmlns="http://www.w3.org/2000/svg">
<g id="Group 2">
<path id="Vector" d="M131.722 38.5466C123.44 49.4539 111.889 52.2117 99.314 50.1002C87.0381 47.9906 75.0268 44.5578 63.4902 39.8617C67.8979 40.278 72.3101 40.7756 76.7166 41.0873C80.9719 41.394 85.2427 41.5233 89.6867 40.3071C71.099 24.7447 48.5436 24.8885 26.176 23.1725C34.9057 16.3919 44.759 13.8411 55.4162 14.291C76.8119 15.1864 95.8762 23.2611 114.402 33.3076C117.894 35.1967 122.002 35.9529 126.055 36.8159C127.399 37.099 131.066 37.778 131.722 38.5466Z" fill="#00A745"/>
<path id="Vector_2" d="M109.064 131.711C114.607 113.349 122.021 95.3017 118.064 75.9029C115.562 83.051 111.512 89.8848 108.936 97.2486C105.307 75.084 115.962 49.6923 133.463 43.7022C132.299 64.434 132.045 84.2603 129.774 103.848C128.397 115.637 119.549 125.536 109.064 131.711Z" fill="#00A745"/>
</g>
</svg>
