<svg width="222" height="191" viewBox="0 0 222 191" fill="none" xmlns="http://www.w3.org/2000/svg">
<g id="Group 1">
<path id="Vector" d="M33.4645 145.217C44.3527 128.128 61.0524 122.659 79.8511 124.247C98.2092 125.868 116.338 129.473 133.92 134.998C127.369 134.919 120.803 134.72 114.267 134.796C107.955 134.86 101.641 135.187 95.2359 137.52C124.534 158.213 157.777 155.264 190.969 155.08C178.919 166.138 164.698 171.095 148.928 171.725C117.269 173.001 88.1773 163.407 59.6397 150.841C54.261 148.478 48.1123 147.862 42.0313 147.081C40.0142 146.827 34.5249 146.271 33.4645 145.217Z" fill="#00A745"/>
<path id="Vector_2" d="M55.57 5.08667C49.6245 32.836 40.8821 60.3484 49.0707 88.474C51.8937 77.6296 57.0354 67.0611 59.9406 55.8898C67.9822 88.1334 55.3507 126.869 30.2708 137.826C29.472 107.113 27.4401 77.8466 28.4121 48.6862C29.012 31.1352 40.8581 15.4649 55.57 5.08667Z" fill="#00A745"/>
</g>
</svg>
